<?xml version="1.0" encoding="utf-8"?>
<!-- Generator: Adobe Illustrator 23.1.0, SVG Export Plug-In . SVG Version: 6.00 Build 0)  -->
<svg version="1.1" id="Layer_1" xmlns="http://www.w3.org/2000/svg" xmlns:xlink="http://www.w3.org/1999/xlink" x="0px" y="0px"
	 viewBox="0 0 750 500" style="enable-background:new 0 0 750 500;" xml:space="preserve">
<style type="text/css">
	.st0{fill:#E0E0E0;}
	.st1{fill:#F5F5F5;}
	.st2{fill:#EBEBEB;}
	.st3{fill:#FFFFFF;}
	.st4{fill:#FAFAFA;}
	.st5{fill:#407BFF;}
	.st6{opacity:0.5;}
	.st7{fill:#263238;}
	.st8{fill:#455A64;}
	.st9{fill:#455A64;stroke:#455A64;stroke-miterlimit:10;}
	.st10{font-family:'Montserrat-Bold';}
	.st11{font-size:15.5188px;}
	.st12{font-size:6.3123px;}
	.st13{fill:#C67761;}
	.st14{fill:#9B4E3D;}
</style>
<g id="background-complete--inject-529">
	<rect x="136.9" y="276.1" class="st0" width="94.8" height="179.2"/>
	<rect x="108.8" y="276.1" class="st1" width="94.8" height="179.2"/>
	<path class="st0" d="M196.6,313h-81.4v-28.4h81.4V313z M116.2,312h79.4v-26.4h-79.4V312z"/>
	<path class="st2" d="M141,285.1h30.9l0,0v0.7c0,2.7-2.2,5-4.9,5c0,0,0,0,0,0h-21c-2.7,0-4.9-2.2-4.9-5l0,0L141,285.1L141,285.1z"/>
	<path class="st0" d="M196.6,349.1h-81.4v-28.4h81.4V349.1z M116.2,348.1h79.4v-26.4h-79.4V348.1z"/>
	<path class="st2" d="M141,321.2h30.9l0,0v0.7c0,2.7-2.2,5-4.9,5c0,0,0,0,0,0h-21c-2.7,0-4.9-2.2-4.9-5l0,0L141,321.2L141,321.2z"/>
	<path class="st0" d="M196.6,385.2h-81.4v-28.4h81.4V385.2z M116.2,384.2h79.4v-26.4h-79.4V384.2z"/>
	<path class="st2" d="M141,357.3h30.9l0,0v0.7c0,2.7-2.2,5-4.9,5c0,0,0,0,0,0h-21c-2.7,0-4.9-2.2-4.9-5V357.3L141,357.3L141,357.3z"
		/>
	<path class="st0" d="M196.6,421.3h-81.4v-28.4h81.4V421.3z M116.2,420.3h79.4v-26.4h-79.4V420.3z"/>
	<path class="st2" d="M141,393.4h30.9l0,0v0.7c0,2.7-2.2,5-4.9,5c0,0,0,0,0,0h-21c-2.7,0-4.9-2.2-4.9-5l0,0L141,393.4L141,393.4z"/>
	<rect x="104.5" y="269.4" class="st2" width="103" height="8.9"/>
	<rect x="207.5" y="269.4" class="st0" width="31" height="8.9"/>
	<rect x="108.8" y="455.4" class="st0" width="5" height="9.2"/>
	<rect x="139.5" y="455.4" class="st0" width="5" height="9.2"/>
	<rect x="195.8" y="455.4" class="st0" width="5" height="9.2"/>
	<rect x="223.9" y="455.4" class="st0" width="5" height="9.2"/>
	<path class="st2" d="M623.6,244.6c-4.8,0.1-7.6,5.5-7.9,10.3s1,9.6-0.1,14.2c-1.5,5.9-6.7,10.3-8,16.1c-1.6,7,2.5,13.9,3,21
		c0.3,3.5-0.3,7,0.5,10.4c1.6,6.8,8.5,11.1,15.4,9.4c5-1.2,8.8-5.3,9.6-10.4c0.8-5.4-1.8-10.9-0.6-16.2c0.8-3.9,3.7-7.4,3.8-11.4
		c0.1-4.8-3.8-8.7-4.8-13.5s1.2-9.5,1.4-14.2C636,251.7,632.1,245.1,623.6,244.6"/>
	<path class="st0" d="M625.9,267c0,0.3,0,0.5,0,0.8c0,0.5-0.1,1.3-0.1,2.2c-0.1,1.9-0.3,4.7-0.6,8c-0.5,6.8-1.2,16.1-1.9,26.5
		s-1.3,19.7-1.7,26.5c-0.2,3.4-0.4,6.1-0.5,8c-0.1,0.9-0.1,1.6-0.2,2.2c0,0.3,0,0.5-0.1,0.8c0-0.3,0-0.5,0-0.8c0-0.5,0-1.3,0.1-2.2
		c0.1-1.9,0.2-4.7,0.3-8c0.3-6.8,0.8-16.1,1.5-26.5s1.4-19.7,2-26.5c0.3-3.4,0.6-6.1,0.7-8c0.1-0.9,0.2-1.6,0.2-2.2
		C625.8,267.5,625.9,267.3,625.9,267z"/>
	<path class="st0" d="M622.6,359.6L622.6,359.6c8.4,0,15.2-6.8,15.2-15.2v-15.2h-30.3v15.2C607.4,352.8,614.2,359.6,622.6,359.6
		L622.6,359.6z"/>
	<path class="st3" d="M607.4,336.7c0.2,0.1,0.3,0.2,0.5,0.3l1.3,1l4.7,3.8h-0.3l8.8-5.4l0,0l0.1-0.1l0.1,0.1l8.1,5.4h-0.3l5.2-3.8
		l1.5-1c0.2-0.1,0.4-0.2,0.5-0.3c-0.1,0.2-0.3,0.3-0.5,0.4l-1.4,1.1l-5,3.9l-0.1,0.1l-0.1-0.1l-8.2-5.3h0.3l-8.8,5.3l-0.1,0.1
		l-0.1-0.1c-1.8-1.6-3.4-2.9-4.6-3.9l-1.2-1.1C607.5,336.9,607.4,336.7,607.4,336.7z"/>
	<path class="st3" d="M607.4,333.7c0.2,0.1,0.3,0.2,0.5,0.3l1.3,1l4.7,3.8h-0.3l8.8-5.4l0,0l0.1-0.1l0.1,0.1l8.1,5.4h-0.3l5.2-3.8
		l1.5-1c0.2-0.1,0.4-0.2,0.5-0.3c-0.1,0.2-0.3,0.3-0.5,0.4l-1.4,1.1l-5,3.9l-0.1,0.1l-0.1-0.1l-8.2-5.3h0.3l-8.8,5.3l-0.1,0.1
		l-0.1-0.1l-4.6-3.9l-1.2-1.1C607.5,333.9,607.4,333.7,607.4,333.7z"/>
	<path class="st3" d="M607.4,339.8c0.2,0.1,0.3,0.2,0.5,0.3l1.3,1l4.7,3.8h-0.3l8.8-5.4l0,0l0.1-0.1l0.1,0.1l8.1,5.4h-0.3l5.2-3.8
		l1.5-1c0.2-0.1,0.4-0.2,0.5-0.3c-0.1,0.2-0.3,0.3-0.5,0.4l-1.4,1.1l-5,4l-0.1,0.1l-0.1-0.1l-8.2-5.3h0.3l-8.8,5.3l-0.1,0.1
		l-0.1-0.1l-4.6-3.9l-1.2-1.1C607.5,340,607.4,339.8,607.4,339.8z"/>
	<polygon class="st2" points="644.1,436.2 653.8,464 649,464 632,436.2 	"/>
	<polygon class="st2" points="588.6,436.2 578.9,464 583.7,464 600.7,436.2 	"/>
	<rect x="565.5" y="359.5" class="st2" width="77.4" height="77.4"/>
	<rect x="589.8" y="359.5" class="st1" width="77.4" height="77.4"/>
	<path class="st0" d="M662,432.1h-67.2V365H662V432.1z M595.9,431.1H661V366h-65.2V431.1z"/>
	<path class="st0" d="M661.2,385.8c-21.8-0.6-43.9-0.5-65.8,0c-0.1,0-0.2,0.2-0.2,0.3c0,0.1,0.1,0.2,0.2,0.2
		c21.8,0.4,43.9,0.6,65.8,0c0.1,0,0.2-0.2,0.2-0.3C661.3,386,661.3,385.9,661.2,385.8L661.2,385.8z"/>
	<path class="st2" d="M626.6,376.3c0,1,0.8,1.9,1.9,1.9c1,0,1.9-0.8,1.9-1.9c0-1-0.8-1.9-1.9-1.9c0,0,0,0,0,0
		C627.4,374.4,626.6,375.3,626.6,376.3z"/>
	<path class="st2" d="M653.7,406.6c0,1,0.9,1.9,1.9,1.9c1,0,1.9-0.9,1.9-1.9c0-1-0.8-1.9-1.9-1.9
		C654.6,404.7,653.7,405.5,653.7,406.6C653.7,406.6,653.7,406.6,653.7,406.6z"/>
	<polygon class="st0" points="165.7,245.4 175.3,269.9 169.4,269.9 164.6,254.8 	"/>
	<polygon class="st2" points="133,222.7 129.7,269.7 163.7,270.5 167.6,222.7 	"/>
	<polygon class="st4" points="136.4,226.5 133.6,265.6 158.9,266.8 162.5,226.2 	"/>
	<polygon class="st0" points="141.9,232 139.9,259.5 153.8,259.5 156.3,232 	"/>
	<rect x="505.3" y="88.5" class="st0" width="109.9" height="108"/>
	<rect x="509.1" y="91.5" class="st4" width="102.2" height="102.2"/>
	<rect x="543.6" y="125.9" class="st0" width="33.3" height="33.3"/>
</g>
<g id="credit-card--inject-529">
	<path class="st5" d="M439.2,317.2l6.6-90.1c0.3-4.2,3.9-7.3,8.1-7l146.6,10.7c4.2,0.3,7.3,3.9,7,8.1l-6.6,90.1
		c-0.3,4.2-3.9,7.3-8.1,7l-146.6-10.7C442,325,438.9,321.3,439.2,317.2z"/>
	<path class="st3" d="M582.3,254.1c-0.5,6.2-5.8,10.8-12,10.3c-6.2-0.5-10.8-5.8-10.3-12c0.5-6.1,5.8-10.7,12-10.3
		C578.1,242.5,582.7,247.9,582.3,254.1C582.3,254,582.3,254.1,582.3,254.1z"/>
	<path class="st3" d="M584.6,266c-0.3,0-0.6,0-0.9,0c-6.4-0.5-11.3-6.1-10.8-12.5c0.5-6.4,6.1-11.3,12.5-10.8
		c6.4,0.5,11.3,6.1,10.8,12.5l0,0C595.8,261.3,590.7,266,584.6,266z M584.6,243.6c-5.9,0-10.7,4.8-10.7,10.7
		c0,5.9,4.8,10.7,10.7,10.7c5.6,0,10.3-4.4,10.7-10l0,0c0.4-5.9-4-11-9.9-11.4L584.6,243.6z"/>
	<path class="st3" d="M455.7,287.9l-0.7,9l-0.9-0.1l0.6-8.1l-2.1-0.1l0.1-0.8L455.7,287.9z"/>
	<path class="st3" d="M464.4,296.7l-0.1,0.8l-6.3-0.5v-0.6l4-3.4c1.1-0.9,1.3-1.5,1.4-2.1c0.1-1-0.6-1.7-2-1.8
		c-0.9-0.1-1.8,0.2-2.5,0.8l-0.6-0.6c0.9-0.8,2.1-1.2,3.3-1c1.8,0.1,2.9,1.1,2.8,2.6c-0.1,0.9-0.4,1.6-1.7,2.7l-3.3,2.8L464.4,296.7
		z"/>
	<path class="st3" d="M473.9,295.9l-1.8-0.1l-0.2,2.4L471,298l0.2-2.4l-5.1-0.4l0-0.7l5.2-5.6l1,0.1l-5,5.5l3.9,0.3l0.1-2.1l0.9,0.1
		l-0.1,2.1l1.9,0.1L473.9,295.9z"/>
	<path class="st3" d="M487.7,296.9l-1.8-0.1l-0.2,2.4l-0.9-0.1l0.2-2.4l-5.1-0.4l0-0.7l5.2-5.6l1,0.1l-5,5.5l3.9,0.3l0.1-2.1
		l0.9,0.1l-0.1,2.1l1.8,0.1L487.7,296.9z"/>
	<path class="st3" d="M495.5,297.1c-0.1,1.5-1.3,2.6-3.5,2.5c-1.2,0-2.3-0.5-3.1-1.4l0.5-0.7c0.7,0.7,1.7,1.2,2.7,1.2
		c1.5,0.1,2.4-0.6,2.5-1.7s-0.6-1.9-2.9-2.1l-1.9-0.1l0.8-4.5l4.9,0.4l-0.1,0.8l-4.1-0.3l-0.5,2.8l1.1,0.1
		C494.7,294.4,495.6,295.6,495.5,297.1z"/>
	<path class="st3" d="M504.4,297.8c-0.1,1.5-1.5,2.7-3,2.6c-0.1,0-0.2,0-0.2,0c-2.4-0.2-3.6-1.9-3.4-4.8c0.2-3,2-4.5,4.4-4.3
		c0.7,0,1.5,0.2,2.1,0.6l-0.4,0.7c-0.5-0.3-1.1-0.5-1.7-0.5c-1.9-0.1-3.3,1-3.4,3.5c0,0.2,0,0.5,0,0.7c0.6-1,1.7-1.5,2.9-1.3
		c1.5,0,2.8,1.1,2.8,2.6C504.4,297.6,504.4,297.7,504.4,297.8z M503.5,297.8c0.1-1.2-0.7-2-2.1-2.1c-1.1-0.2-2.2,0.5-2.4,1.7
		c0,0,0,0.1,0,0.1c-0.1,1,0.7,2,2.2,2.1c1.1,0.2,2.1-0.5,2.3-1.6C503.5,297.8,503.5,297.8,503.5,297.8L503.5,297.8z"/>
	<path class="st3" d="M516.7,298.8c-0.1,1.5-1.3,2.6-3.4,2.4c-1.2,0-2.3-0.5-3.1-1.4l0.5-0.7c0.7,0.7,1.7,1.2,2.7,1.2
		c1.5,0.1,2.3-0.5,2.4-1.6s-0.6-1.8-2.3-2h-0.6l0-0.7l2.7-2.9l-4.6-0.3l0.1-0.8l5.8,0.4v0.6l-2.8,3
		C515.9,296.2,516.8,297.3,516.7,298.8z"/>
	<path class="st3" d="M525.7,299.3c-0.1,1.5-1.5,2.7-3,2.6c-0.1,0-0.2,0-0.2,0c-2.4-0.2-3.5-1.9-3.3-4.8c0.2-3,2-4.5,4.4-4.3
		c0.7,0,1.5,0.2,2.1,0.6l-0.4,0.7c-0.5-0.3-1.1-0.5-1.7-0.5c-1.9-0.1-3.3,1-3.4,3.4c0,0.2,0,0.5,0,0.7c0.6-1,1.7-1.5,2.9-1.3
		c1.5,0,2.8,1.1,2.8,2.6C525.7,299.1,525.7,299.2,525.7,299.3z M524.8,299.3c0.1-1.2-0.7-2-2.1-2.1c-1.1-0.2-2.2,0.5-2.4,1.7
		c0,0,0,0.1,0,0.1c-0.1,1,0.7,2,2.2,2.1c1.1,0.2,2.1-0.5,2.3-1.6C524.7,299.4,524.7,299.3,524.8,299.3L524.8,299.3z"/>
	<path class="st3" d="M534.4,293.6v0.6l-4.4,8.1l-1-0.1l4.3-7.9l-4.6-0.3l-0.1,1.7l-0.9-0.1l0.2-2.5L534.4,293.6z"/>
	<path class="st3" d="M547.2,294.5l0,0.6l-4.4,8l-1-0.1l4.3-7.9l-4.6-0.3l-0.1,1.7l-0.9-0.1l0.2-2.5L547.2,294.5z"/>
	<path class="st3" d="M555.6,301.7c-0.1,1.6-1.5,2.5-3.7,2.3s-3.4-1.2-3.3-2.8c0.1-1,0.9-1.9,1.9-2.1c-0.8-0.3-1.4-1.2-1.3-2.1
		c0.1-1.5,1.4-2.3,3.3-2.1s3.1,1.1,3,2.6c0,0.9-0.7,1.7-1.6,1.9C555,299.6,555.6,300.6,555.6,301.7z M554.6,301.6
		c0.1-1.1-0.8-1.9-2.4-2s-2.6,0.5-2.7,1.6s0.8,1.9,2.4,2S554.5,302.7,554.6,301.6L554.6,301.6z M552.3,298.9
		c1.4,0.1,2.3-0.5,2.3-1.4s-0.8-1.7-2.1-1.8s-2.3,0.5-2.3,1.5S550.9,298.8,552.3,298.9L552.3,298.9z"/>
	<path class="st3" d="M564.4,300.2c-0.2,3-2,4.5-4.4,4.3c-0.7,0-1.5-0.2-2.1-0.6l0.4-0.7c0.5,0.3,1.1,0.5,1.7,0.5
		c1.9,0.1,3.3-1,3.5-3.4c0-0.2,0-0.5,0-0.7c-0.6,1-1.7,1.5-2.8,1.3c-1.5,0.1-2.8-1.1-2.8-2.6c0-0.1,0-0.2,0-0.3
		c0.1-1.5,1.5-2.7,3-2.6c0.1,0,0.2,0,0.2,0C563.5,295.6,564.6,297.4,564.4,300.2z M563.3,298.4c0.1-1-0.7-2-2.2-2.1
		c-1.1-0.2-2.1,0.5-2.3,1.6c0,0.1,0,0.1,0,0.2c-0.1,1.2,0.7,2,2.1,2.1c1.1,0.2,2.2-0.5,2.4-1.7C563.3,298.4,563.3,298.4,563.3,298.4
		L563.3,298.4z"/>
	<path class="st3" d="M573.8,296.5l-0.7,9l-0.9-0.1l0.6-8.1l-2.1-0.2l0.1-0.8L573.8,296.5z"/>
	<path class="st3" d="M582.5,305.3l-0.1,0.8l-6.3-0.5V305l4-3.4c1.1-0.9,1.3-1.5,1.4-2.1c0.1-1-0.6-1.7-2-1.8
		c-0.9-0.1-1.8,0.2-2.5,0.8l-0.6-0.6c0.9-0.8,2.1-1.2,3.3-1c1.8,0.1,2.9,1.1,2.8,2.6c-0.1,1.1-0.7,2.1-1.7,2.7l-3.2,2.8L582.5,305.3
		z"/>
	<path class="st3" d="M590.7,304.1c-0.1,1.5-1.3,2.6-3.5,2.4c-1.2,0-2.3-0.5-3.2-1.4l0.5-0.7c0.7,0.7,1.7,1.2,2.7,1.2
		c1.5,0.1,2.4-0.5,2.4-1.6s-0.6-1.8-2.3-2l-0.6,0l0-0.7l2.7-2.9l-4.6-0.3l0.1-0.8l5.8,0.4v0.6l-2.8,3
		C589.9,301.6,590.8,302.7,590.7,304.1z"/>
	
		<rect x="554.8" y="276.9" transform="matrix(7.254199e-02 -0.9974 0.9974 7.254199e-02 204.3364 845.5199)" class="st3" width="3.9" height="72"/>
	
		<rect x="571.8" y="303.5" transform="matrix(7.254199e-02 -0.9974 0.9974 7.254199e-02 211.0142 870.8048)" class="st3" width="3.9" height="37"/>
	<g class="st6">
		<path d="M457.3,257.6l20.3,1.5c2.7,0.2,4.8,2.6,4.6,5.3l-0.9,12.6c-0.2,2.7-2.6,4.8-5.3,4.6l-20.3-1.5c-2.7-0.2-4.8-2.6-4.6-5.3
			l0.9-12.6C452.2,259.5,454.6,257.4,457.3,257.6z"/>
	</g>
	<path class="st5" d="M451.2,273.5l0.1-1.4l15.5,1.1c1.8,0.1,3.3-1.3,3.4-3.1c0.1-1.7-1.2-3.2-2.9-3.4l-15.5-1.1l0.1-1.5l15.5,1.1
		c2.6,0.1,4.6,2.3,4.5,4.9c-0.1,2.6-2.3,4.6-4.9,4.5c-0.1,0-0.2,0-0.3,0L451.2,273.5z"/>
	
		<rect x="475.7" y="265.3" transform="matrix(7.358634e-02 -0.9973 0.9973 7.358634e-02 171.4389 725.8174)" class="st5" width="1.5" height="10.7"/>
	
		<rect x="492.5" y="206.2" transform="matrix(7.271600e-02 -0.9974 0.9974 7.271600e-02 215.3186 721.8342)" class="st3" width="6.7" height="77.7"/>
</g>
<g id="Device--inject-529">
	<polygon class="st4" points="339.7,151 339.7,51.8 346.5,57.3 352,51.8 357.9,56.6 363.5,51.8 369,57 375.7,51.8 380.6,56.6 
		386,51.8 391.4,57.1 397.9,51.8 403.5,57 409.4,51.8 415.6,57.1 421.1,51.8 426.5,56.5 432.4,51.8 438.6,56.5 444,51.8 444,151 	
		"/>
	<path class="st7" d="M339.7,151h1.9h5.6l21.1-0.1l75.7-0.1l-0.2,0.2c0-28.8,0-62.7,0-99.2l0.4,0.2l-5.4,4.7l-0.2,0.1l-0.2-0.1
		l-6.2-4.7h0.3l-1.7,1.4l-4.1,3.3l-0.2,0.1l-0.2-0.2l-5.4-4.7h0.4l-5.5,5.3l-0.2,0.2l-0.2-0.2l-6.2-5.3h0.3l-5.9,5.2l-0.2,0.2
		l-0.2-0.2l-5.5-5.2h0.3l-6.5,5.3l-0.2,0.1l-0.2-0.2c-1.8-1.8-3.6-3.6-5.4-5.3h0.4l-5.4,4.8l-0.2,0.2l-0.2-0.2
		c-1.6-1.6-3.3-3.3-4.9-4.8h0.3l-6.7,5.2l-0.2,0.1l-0.1-0.1c-1.9-1.8-3.7-3.5-5.5-5.2h0.3l-5.5,4.8l-0.1,0.1l-0.2-0.1l-5.9-4.8h0.3
		c-1.9,1.9-3.7,3.7-5.5,5.5l-0.1,0.1l-0.1-0.1l-6.8-5.5l0.4-0.2c0,29.9-0.1,54.7-0.1,72c0,8.7,0,15.5,0,20.1c0,2.3,0,4.1,0,5.3
		s0,1.8,0,1.8s0-0.6,0-1.8s0-3,0-5.2c0-4.6,0-11.4-0.1-20.1c0-17.3-0.1-42.2-0.1-72.1v-0.5l0.4,0.3l6.8,5.5h-0.3l5.5-5.5l0.1-0.2
		l0.2,0.1l5.9,4.8h-0.3l5.5-4.8l0.2-0.1l0.2,0.2l5.5,5.2H369l6.7-5.2l0.2-0.1l0.2,0.2l4.9,4.8h-0.3l5.4-4.8l0.2-0.2l0.2,0.2l5.4,5.3
		h-0.3l6.5-5.3l0.2-0.1l0.2,0.2l5.5,5.2h-0.3l5.9-5.2l0.2-0.2l0.2,0.2l6.2,5.3h-0.4l5.5-5.3l0.2-0.2l0.2,0.2
		c1.8,1.5,3.6,3.1,5.4,4.7h-0.3l4.1-3.3l1.7-1.4l0.2-0.1l0.2,0.1l6.2,4.7h-0.3l5.4-4.7l0.4-0.4v0.6c0,36.5,0,70.4,0,99.2v0.2H444
		l-75.8-0.1l-21.1-0.2h-5.5C340.3,151,339.7,151,339.7,151z"/>
	<path class="st7" d="M393.9,92c0,0.2-9.7,0.3-21.7,0.3s-21.7-0.1-21.7-0.3s9.7-0.3,21.7-0.3S393.9,91.9,393.9,92z"/>
	<path class="st7" d="M393.9,103.4c0,0.2-9.7,0.3-21.7,0.3s-21.7-0.1-21.7-0.3s9.7-0.3,21.7-0.3S393.9,103.2,393.9,103.4z"/>
	<path class="st7" d="M393.9,114.7c0,0.1-9.7,0.3-21.7,0.3s-21.7-0.1-21.7-0.3s9.7-0.3,21.7-0.3S393.9,114.5,393.9,114.7z"/>
	<path class="st7" d="M393.9,126c0,0.1-9.7,0.3-21.7,0.3s-21.7-0.1-21.7-0.3s9.7-0.3,21.7-0.3S393.9,125.8,393.9,126z"/>
	<path class="st7" d="M429.7,91.8c-5,0.3-10,0.3-15,0C419.7,91.5,424.7,91.5,429.7,91.8z"/>
	<path class="st7" d="M429.7,103.4c-5,0.3-10,0.3-15,0C419.7,103,424.7,103,429.7,103.4z"/>
	<path class="st7" d="M429.7,114.9c-5,0.3-10,0.3-15,0C419.7,114.6,424.7,114.6,429.7,114.9z"/>
	<path class="st7" d="M429.7,126.5c-5,0.3-10,0.3-15,0C419.7,126.1,424.7,126.1,429.7,126.5z"/>
	<polygon class="st2" points="339.8,137.6 339.8,134.5 443.7,129.8 443.7,138.1 	"/>
	<path class="st7" d="M444.8,467.3l-111.5-0.5c-13.4-0.1-24.2-11-24.2-24.4c0,0,0,0,0,0l1.2-279.6c0.1-13.4,11-24.3,24.4-24.2
		c0,0,0,0,0,0l111.5,0.5c13.4,0.1,24.2,11,24.2,24.4l-1.2,279.6C469.1,456.5,458.2,467.4,444.8,467.3
		C444.8,467.3,444.8,467.3,444.8,467.3z"/>
	<path class="st4" d="M446,148.8l-21.6-0.1c-3,0-5.3,2.5-5.3,5.5c0,0,0,0,0,0v3.9c0.1,3-2.3,5.4-5.3,5.5l-42.1-0.2
		c-3-0.1-5.3-2.5-5.2-5.5v-3.9c0.1-3-2.3-5.4-5.2-5.5h-7.6l-18.9-0.1c-9.4,0-17,7.5-17.1,16.9c0,0,0,0,0,0l-1.2,272.9
		c0,9.4,7.6,17,16.9,17.1c0,0,0,0,0,0l111.3,0.5c9.4,0,17-7.5,17.1-16.9c0,0,0,0,0,0l1.2-272.9C463,156.5,455.5,148.8,446,148.8
		C446.1,148.8,446,148.8,446,148.8z"/>
	<path class="st8" d="M383,429.6c0.2,1.3-0.7,2.4-2,2.6c-1.3,0.2-2.4-0.7-2.6-2c-0.2-1.3,0.7-2.4,2-2.6c0.1,0,0.2,0,0.3,0
		C381.9,427.5,382.9,428.4,383,429.6z"/>
	<path class="st8" d="M390.1,429.6c0.2,1.3-0.7,2.5-2,2.6c-1.3,0.2-2.5-0.7-2.6-2s0.7-2.5,2-2.6c0.1,0,0.2,0,0.3,0
		C389,427.5,390.1,428.4,390.1,429.6z"/>
	<path class="st8" d="M397.2,429.6c0.2,1.3-0.7,2.4-2,2.6c-1.3,0.2-2.4-0.7-2.6-2c-0.2-1.3,0.7-2.4,2-2.6c0.1,0,0.2,0,0.3,0
		C396.1,427.6,397.2,428.5,397.2,429.6C397.2,429.6,397.2,429.6,397.2,429.6z"/>
	<path class="st9" d="M344.1,202.2h91.1c4.8,0,8.8,3.9,8.8,8.8v94.6c0,4.8-3.9,8.8-8.8,8.8h-91.1c-4.8,0-8.8-3.9-8.8-8.8v-94.6
		C335.4,206.1,339.3,202.2,344.1,202.2z"/>
	<text transform="matrix(1 0 0 1 408.68 340.98)" class="st10 st11">10</text>
	<text transform="matrix(1 0 0 1 427.84 334.8)" class="st7 st10 st12">99</text>
	<rect x="427.8" y="336.4" class="st7" width="7.8" height="1"/>
	<rect x="341.9" y="333.3" class="st7" width="40" height="1.2"/>
	<rect x="341.9" y="337.3" class="st7" width="24.3" height="1.2"/>
	<path class="st5" d="M428,395.3l-80-0.4c-0.8,0-1.5-0.9-1.5-2l0.1-20.9c0-1.1,0.7-2,1.5-2l80.1,0.4c0.8,0,1.5,0.9,1.5,2l-0.1,21
		C429.5,394.4,428.9,395.3,428,395.3z"/>
	<g class="st6">
		<path d="M428,395.3l-80-0.4c-0.8,0-1.5-0.9-1.5-2l0.1-20.9c0-1.1,0.7-2,1.5-2l80.1,0.4c0.8,0,1.5,0.9,1.5,2l-0.1,21
			C429.5,394.4,428.9,395.3,428,395.3z"/>
	</g>
	<path class="st5" d="M428,388.6l-80-0.4c-0.8,0-1.5-0.9-1.5-2l0.1-20.9c0-1.1,0.7-2,1.5-2l80.1,0.4c1,0.2,1.6,1,1.5,2l-0.1,21
		C429.5,387.7,428.9,388.6,428,388.6z"/>
	<path class="st3" d="M384.4,374.4c0,1.3-0.9,2.1-2.5,2.1h-1.6v2h-0.6v-6.3h2.3C383.5,372.2,384.4,373,384.4,374.4z M383.8,374.4
		c0-1-0.6-1.6-1.8-1.6h-1.6v3.1h1.6C383.1,375.9,383.8,375.4,383.8,374.4L383.8,374.4z"/>
	<path class="st3" d="M389.2,376.9h-3.3l-0.7,1.7h-0.7l2.8-6.2h0.6l2.7,6.3H390L389.2,376.9z M389,376.3l-1.4-3.4l-1.5,3.4
		L389,376.3z"/>
	<path class="st3" d="M393.3,376.4v2.2h-0.6v-2.2l-2.4-4.1h0.7l2,3.5l2.1-3.5h0.6L393.3,376.4z"/>
	<path class="st3" d="M406.5,276.3c-0.2,0-0.5,0.1-0.7,0l-2,0l-7.5,0.1l-25.2,0.1h-0.2v-0.2c-0.2-1.3-0.4-2.7-0.6-4.2
		c-1.7-12.2-3.2-23.1-4.1-30.2l0.2,0.1l-6.7-0.1h-1.8c-0.2,0-0.4,0-0.6,0c0.2,0,0.4,0,0.6,0l1.8-0.1l6.7-0.1h0.1v0.1
		c1,7.1,2.6,18,4.3,30.2c0.2,1.4,0.4,2.8,0.6,4.2l-0.3-0.2l25.2,0.1l7.5,0.1h2C406,276.3,406.3,276.3,406.5,276.3z"/>
	<path class="st3" d="M370.1,268.9h0.7h2l7.6-0.1l26.1-0.1l-0.2,0.2c0.8-4.4,1.6-9.1,2.5-14.1c0.4-2.5,0.9-5,1.3-7.4l0.3,0.3
		l-30.8-0.1l-9.1-0.1l-2.5-0.1h-0.6h-0.2h0.2h0.6h2.5l9.1-0.1l30.8-0.1h0.3l0,0.3c-0.4,2.4-0.9,4.9-1.3,7.4
		c-0.9,4.9-1.7,9.7-2.5,14.1v0.2h-0.2l-26.1-0.1l-7.6-0.1h-2C370.6,269.2,370.3,269.1,370.1,268.9z"/>
	<path class="st3" d="M380,285.9c0,0,0-0.3-0.2-0.8c-0.2-0.7-0.7-1.4-1.3-1.8c-1.5-1.1-3.6-0.8-4.6,0.7c-1.1,1.5-0.8,3.6,0.7,4.6
		c1.2,0.9,2.8,0.9,4,0c0.6-0.5,1.1-1.1,1.3-1.8C380,286.2,380,285.9,380,285.9c0.1,0.3,0.1,0.6,0,0.9c-0.2,0.8-0.6,1.6-1.3,2.1
		c-1,0.8-2.3,1-3.5,0.6c-2-0.7-3-2.9-2.3-4.8c0.4-1.1,1.2-1.9,2.3-2.3c1.2-0.4,2.5-0.2,3.5,0.6c0.7,0.5,1.1,1.3,1.3,2.1
		C380.1,285.3,380.1,285.6,380,285.9z"/>
	<path class="st3" d="M402.7,285.9c0,0,0-0.3-0.2-0.8c-0.2-0.7-0.7-1.4-1.3-1.8c-1.5-1.1-3.6-0.8-4.6,0.7c-1.1,1.5-0.8,3.6,0.7,4.6
		c1.2,0.9,2.8,0.9,4,0c0.6-0.4,1.1-1.1,1.3-1.8C402.7,286.2,402.7,285.9,402.7,285.9c0.1,0.3,0.1,0.6,0,0.9
		c-0.2,0.8-0.6,1.6-1.3,2.1c-1,0.8-2.3,1-3.5,0.6c-2-0.7-3-2.9-2.3-4.8c0.4-1.1,1.2-1.9,2.3-2.3c1.2-0.4,2.5-0.2,3.5,0.6
		c0.7,0.5,1.1,1.3,1.3,2.1C402.8,285.3,402.8,285.6,402.7,285.9z"/>
	<circle class="st5" cx="408.4" cy="243.9" r="10.1"/>
	<path class="st7" d="M413.4,241.3c-1.4,1.9-3,3.7-4.7,5.3l-1.5,1.5l-0.2,0.2l-0.2-0.2c-1.3-1.1-2.5-2.2-3.6-3.5
		c1.4,0.9,2.7,2,4,3.1h-0.4c0.5-0.5,0.9-1,1.4-1.5C409.9,244.4,411.6,242.8,413.4,241.3z"/>
</g>
<g id="Character--inject-529">
	<path class="st8" d="M303.8,168c-0.1,0.4-3.2,28.1-3.2,28.1l11.7-2.1l3-22.9L303.8,168z"/>
	<polygon class="st7" points="300.7,196.1 299.8,195.6 302.5,167.6 303.8,168 	"/>
	<circle class="st7" cx="309.4" cy="172.3" r="0.5"/>
	<path class="st13" d="M293.6,211.1l22.5,5.8l-3.4-27.9l0,0l-0.5-1.3l-8.2-1.3l1-6.1c0.5-2.7,3.1-4.5,5.9-4c0.1,0,0.2,0,0.3,0.1
		l2.7,0.7c1.9,0.5,3.5,1.8,4.5,3.6c1.6,3.1,3.1,6.4,2.9,6.1l0,0l12,32.7c2.1,4.3,1.6,9.4-1.3,13.2c-3.9,5-13.2,1.5-17.7,0.7
		l-28.8-6.3L293.6,211.1z"/>
	<path class="st13" d="M208.4,259.5c-5.1-5.8-5-14.5,0.1-20.2l24.5-27.8l6.6,18.4c-0.4,0.3-19.1,20.3-19.1,20.3l16,20
		c2.5,3.1,3.2,7.2,1.9,10.9l-0.7,3c-0.9,3.8-4.8,6.1-8.6,5.2c-0.4-0.1-0.8-0.2-1.2-0.4l-4.5-2c-0.5-0.3-0.7-0.9-0.4-1.3c0,0,0,0,0,0
		l0,0c0.2-0.3,0.5-0.4,0.8-0.4h6.1c1.3,0,2.4-0.9,2.7-2.1l0,0L208.4,259.5z"/>
	<path class="st14" d="M217,246.6c0.8,0.5,1.5,1.1,2.1,1.8c0.7,0.6,1.3,1.4,1.7,2.3c-0.8-0.5-1.5-1.2-2.1-1.9
		C218,248.2,217.4,247.4,217,246.6z"/>
	<path class="st13" d="M222.9,451.1c0,0,25.2-80.1,25.8-82.7c0.5-2.4-9.1-60-10.4-74.9l34.1,1.3v0.3l14.5,0.8l-13,163.8h-15.7
		l1.6-54.4c-9.7,26-23.5,52.4-23.5,52.4L222.9,451.1z"/>
	<path class="st14" d="M259.1,424.7c0-0.5,0.2-18.2,0.2-18.2s6.9-19.7,7.1-19.2S259.1,424.7,259.1,424.7z"/>
	<path class="st7" d="M246.6,170c-1.8-2.5-5.9-2.3-8.2-0.3s-3.1,5.3-3.2,8.4c-0.1,2.9,0.1,6.3-2.2,8c-1,0.6-2.1,1.1-3.1,1.5
		c-1.8,1-2.9,2.9-2.9,5c0,1.5,0.6,3.3-0.4,4.4c-0.6,0.5-1.2,0.9-1.9,1.2c-1.8,1.3-2.7,3.4-2.5,5.6c0.1,1.7,0.6,3.4,1.4,4.8
		c0,0,16.2-0.2,23.5,0C247.1,208.7,247,182.8,246.6,170"/>
	<path class="st13" d="M272.8,203.3c0-1.8,0.5-9.1,0.5-9.1s6.8-0.7,7.2-7.5s0.2-22.7,0.2-22.7l-12.2-6.3L255,168.2l1.4,35.2
		L272.8,203.3z"/>
	<path class="st7" d="M279.3,175.6c0,0.5-0.4,0.9-0.8,0.9c0,0,0,0,0,0c-0.5-0.1-0.8-0.5-0.8-1c0-0.4,0.4-0.7,0.8-0.8
		C278.9,174.7,279.3,175.1,279.3,175.6C279.3,175.6,279.3,175.6,279.3,175.6z"/>
	<path class="st7" d="M280.1,174.7c-0.1,0.1-0.7-0.4-1.7-0.5s-1.6,0.4-1.7,0.3s0.1-0.3,0.4-0.5c0.4-0.3,0.9-0.4,1.4-0.4
		c0.5,0,0.9,0.2,1.3,0.6C280.1,174.4,280.2,174.6,280.1,174.7z"/>
	<path class="st7" d="M269.4,175.5c0,0.5-0.4,0.9-0.9,0.9c-0.5-0.1-0.8-0.5-0.8-1c0-0.4,0.4-0.7,0.8-0.8
		C269,174.6,269.4,175,269.4,175.5C269.4,175.5,269.4,175.5,269.4,175.5z"/>
	<path class="st7" d="M269.9,174.6c-0.1,0.1-0.7-0.4-1.7-0.5s-1.6,0.4-1.7,0.3s0.1-0.3,0.4-0.5c0.4-0.3,0.9-0.4,1.4-0.4
		c0.5,0,0.9,0.2,1.3,0.6C269.9,174.3,270,174.5,269.9,174.6z"/>
	<path class="st7" d="M273.2,182.6c0.5-0.1,1-0.2,1.5-0.2c0.2,0,0.5,0,0.5-0.2c0-0.3,0-0.5-0.1-0.8c-0.2-0.6-0.4-1.3-0.6-2
		c-0.6-1.7-1-3.4-1.3-5.1c0.7,1.6,1.3,3.3,1.7,5c0.2,0.7,0.4,1.4,0.6,2c0.1,0.3,0.2,0.7,0.1,1c-0.1,0.2-0.2,0.3-0.4,0.3
		c-0.1,0-0.3,0-0.4,0C274.2,182.7,273.7,182.7,273.2,182.6z"/>
	<path class="st14" d="M273.3,194.3c-3.2-0.2-6.3-1.3-8.8-3.2c0,0,2,5.1,8.7,4.8L273.3,194.3z"/>
	<path class="st7" d="M245.3,174.6c0.1-0.5-0.1,0.5,0-0.2l0,0c0.1-0.9,0.2-1.9,0.4-2.8c3.8-14.3,16.1-16.8,18.5-16.8
		c2.6,0,10-0.2,14.2,5c3.2,3.8,4.1,9,2.4,13.6l0,0l-10.8-1.9c0.8-2.7-0.3-6.1-0.9-7.6l-0.1-0.1c-2,10.2-13.1,11.2-13.1,11.2
		l-0.1,16.4C247.8,190.2,245.1,180.6,245.3,174.6z"/>
	<path class="st7" d="M252.7,176c0.3,0,0.7,0,1,0.1c0.9,0.1,1.7,0.1,2.6,0c1.3-0.1,2.6-0.4,3.8-0.8c3-1.1,5.5-3.2,7-6
		c0.6-1.1,1.1-2.3,1.4-3.6c0.2-1.2,0.4-2.4,0.5-3.6c0.1,0.3,0.1,0.7,0.1,1c0,0.9-0.1,1.8-0.2,2.7c-0.3,1.3-0.7,2.6-1.4,3.7
		c-2.2,4.1-6.5,6.8-11.2,6.9c-0.9,0-1.8,0-2.7-0.2C253.3,176.2,253,176.1,252.7,176z"/>
	<path class="st13" d="M256,182.6c0.1-1,0.5-3.5,0.2-4.5s-1.4-1.2-2.6-1.2c-1.4,0.1-2.5,1.2-2.6,2.6c-0.1,1.2,0.5,2.3,1.4,3
		c1,0.6,2.3,0.7,3.4,0.2"/>
	<path class="st14" d="M254.8,181.2c0-0.1-0.3,0.1-0.8-0.1c-0.5-0.2-0.9-0.8-0.9-1.3c0-0.3,0.1-0.6,0.2-0.8c0.2-0.1,0.4-0.2,0.7-0.2
		c0.5,0.1,0.8,0.2,0.8,0.1s-0.2-0.3-0.8-0.5c-0.3-0.1-0.7,0-1,0.2c-0.3,0.3-0.5,0.7-0.5,1.2c0,0.4,0.1,0.8,0.4,1.2
		c0.2,0.3,0.5,0.5,0.9,0.5C254.5,181.6,254.8,181.3,254.8,181.2z"/>
	<path class="st8" d="M251.9,182.4c-0.1,0.4-0.1,0.7-0.1,1.1c0,0.4,0.2,0.7,0.5,1c0.6,0.6,1.6,0.5,2.2-0.1c0.1-0.1,0.1-0.2,0.2-0.2
		c0.2-0.3,0.3-0.7,0.2-1.1c-0.1-0.7-0.5-1-0.4-1s0.5,0.2,0.8,1c0.1,0.5,0.1,1-0.2,1.4c-0.5,0.9-1.7,1.3-2.6,0.8
		c-0.2-0.1-0.3-0.2-0.5-0.3c-0.3-0.3-0.5-0.8-0.5-1.3C251.4,182.7,251.9,182.4,251.9,182.4z"/>
	<path class="st8" d="M247,178.7c-0.4-0.3-0.7-0.7-0.9-1.2c-1.2-2.2-1.4-4.8-0.5-7.1c0.1-0.5,0.4-1,0.8-1.3
		c-0.5,1.6-0.8,3.2-0.8,4.9C245.7,175.6,246.2,177.2,247,178.7z"/>
	<path class="st7" d="M219.8,205.9c-0.1-0.1-0.2-0.3-0.3-0.4c-0.2-0.5-0.3-0.9-0.4-1.4c-0.1-0.8,0-1.6,0.2-2.4
		c0.3-1,0.9-1.9,1.7-2.6c0.9-0.8,2.2-1.1,3-2.1c0.4-0.5,0.6-1.2,0.6-1.8c-0.1-0.7-0.2-1.5-0.3-2.2c-0.2-0.8-0.1-1.6,0.1-2.4
		c0.3-0.8,0.7-1.6,1.3-2.2c1.3-1.2,2.7-2.2,4.3-2.9c1.5-0.7,2.8-1.9,3.6-3.3c0.5-1.5,0.7-3,0.5-4.6c-0.1-2.8,1-5.5,3-7.4
		c1.4-1.3,3.1-2,5-2c0.5,0,1,0.1,1.5,0.2c0.2,0,0.3,0.1,0.5,0.2c-0.7-0.1-1.3-0.2-2-0.2c-1.8,0.1-3.5,0.8-4.8,2.1
		c-1.8,1.9-2.9,4.5-2.8,7.2c0.1,1.6,0,3.3-0.6,4.8c-0.9,1.5-2.2,2.8-3.8,3.6c-1.5,0.7-2.9,1.7-4.2,2.8c-1.1,1.1-1.6,2.6-1.3,4.1
		c0.1,0.7,0.2,1.5,0.3,2.2c0,0.8-0.2,1.5-0.7,2.1c-1,1.1-2.3,1.4-3.1,2.1c-0.8,0.6-1.3,1.5-1.7,2.4c-0.2,0.7-0.3,1.5-0.3,2.3
		C219.3,204.6,219.5,205.3,219.8,205.9z"/>
	<path class="st14" d="M270.4,183.1c0.5-0.2,1-0.2,1.5,0c0.5,0.2,0.8,0.6,0.9,1.1c0.1,0.5-0.2,1-0.7,1.2c-0.5,0.2-1,0.1-1.4-0.2
		c-0.4-0.2-0.7-0.6-0.8-1C269.7,183.9,270,183.4,270.4,183.1"/>
	<path class="st7" d="M269.8,181.9c0.1,0,0.5,1.2,1.6,2.1c0.8,0.5,1.6,0.8,2.5,1c0,0.1-0.3,0.2-0.9,0.2c-0.7,0-1.4-0.3-2-0.7
		c-0.6-0.4-1-1-1.2-1.7C269.7,182.2,269.7,181.9,269.8,181.9z"/>
	<path class="st5" d="M241,204.9c-3.9,1-6.1,2.2-11.9,8.5l-15.5,17.4l21.4,15.5l8.7-11.9l1.9,26c0,0-4.8,5.9-9.1,22.5
		c-3.5,13.4-3.8,27-4.8,37.4l-2.6,65.3l60.8,1.7c0,0-2.3-19.3-1.2-60.5c0.6-23.4-3.2-46.8-5.2-53.3l-3.1-17c0-3.1,0.9-6.2,2.7-8.7
		c4.9-6.9,1.4-15.1,1.4-15.1l16.2,6l10.7-24.2l-22.1-8.4c-8-3.3-17.5-2.8-17.5-2.8l-16.9-0.2C254.7,203.1,246.8,202.5,241,204.9"/>
	<path class="st5" d="M274.1,460.4v-1.5l-16.1-0.7v6.1l1,0.1c4.4,0.2,22.4,1,25.4,0.1C287.7,463.5,274.1,460.4,274.1,460.4z"/>
	<g class="st6">
		<path class="st3" d="M263.8,464.2c-0.2-1.3-0.9-2.6-2-3.4c-1.1-0.8-2.4-1.3-3.7-1.2v4.5L263.8,464.2z"/>
	</g>
	<g class="st6">
		<path class="st3" d="M280.8,462.1c0,0,4.8,1.4,4.2,2.2s-18.9,0.7-26.9,0V464l21.3,0.3C279.3,464.2,279.8,462.2,280.8,462.1z"/>
	</g>
	<path class="st7" d="M257.8,463.9h0.3l0.8,0l2.9,0.1c2.5,0.1,5.9,0.2,9.6,0.2s7.1,0,9.6-0.1l2.9-0.1h0.8h0.3h-1.1h-2.9
		c-2.5,0-5.8,0.1-9.6,0.1s-7.1-0.1-9.6-0.1l-2.9-0.1h-0.8L257.8,463.9z"/>
	<path class="st7" d="M279.3,464.5c0.1-0.5,0.3-0.9,0.5-1.4c0.3-0.4,0.6-0.8,1-1.1c-0.5,0.2-0.9,0.5-1.2,1
		C279.4,463.4,279.3,463.9,279.3,464.5z"/>
	<path class="st7" d="M274.6,462c0,0,0.3-0.2,0.5-0.6s0.4-0.7,0.3-0.7s-0.3,0.2-0.5,0.6C274.8,461.5,274.7,461.7,274.6,462z"/>
	<path class="st7" d="M273.3,461.4c0,0,0.3-0.1,0.6-0.4s0.5-0.5,0.4-0.5s-0.3,0.1-0.6,0.4S273.3,461.3,273.3,461.4z"/>
	<path class="st7" d="M272.5,459.8c0.3,0.1,0.5,0.1,0.8,0.1c0.5,0,0.8,0,0.8-0.1c-0.3-0.1-0.5-0.1-0.8-0.1
		C273.1,459.7,272.8,459.8,272.5,459.8z"/>
	<path class="st7" d="M272.2,458.8c0.3,0.2,0.6,0.3,0.9,0.3c0.3,0.1,0.7,0,1-0.1c-0.3,0-0.6-0.1-0.9-0.1
		C272.9,458.8,272.6,458.8,272.2,458.8z"/>
	<path class="st7" d="M275.2,460.6c0.3,0.1,0.7,0.1,1,0c0.4,0,0.7-0.1,1.1-0.2c0.2-0.1,0.4-0.2,0.6-0.3c0.1-0.1,0.2-0.2,0.3-0.3
		c0-0.2,0-0.3-0.2-0.4c-0.8-0.4-1.8-0.2-2.3,0.5c-0.2,0.2-0.3,0.4-0.3,0.7c0,0.2,0,0.3,0,0.3c0.1-0.3,0.3-0.6,0.5-0.9
		c0.2-0.3,0.5-0.5,0.9-0.6c0.4-0.1,0.8-0.1,1.2,0.1c0.2,0.1,0.1,0.3-0.1,0.4c-0.2,0.1-0.4,0.2-0.6,0.2c-0.3,0.1-0.7,0.2-1.1,0.3
		C275.5,460.6,275.2,460.6,275.2,460.6z"/>
	<path class="st7" d="M275.4,460.7c0.1-0.2,0.2-0.5,0.1-0.7c0-0.3-0.1-0.5-0.3-0.8c-0.2-0.3-0.5-0.5-0.9-0.5c-0.2,0-0.4,0.2-0.3,0.5
		c0,0,0,0,0,0c0,0.2,0.1,0.3,0.2,0.5c0.1,0.2,0.3,0.4,0.5,0.6C274.9,460.4,275.1,460.6,275.4,460.7c-0.1,0-0.3-0.2-0.6-0.5
		c-0.2-0.2-0.3-0.4-0.4-0.6c-0.1-0.2-0.2-0.6,0-0.6s0.5,0.2,0.7,0.4c0.1,0.2,0.2,0.4,0.3,0.7C275.4,460.2,275.4,460.5,275.4,460.7z"
		/>
	<path class="st7" d="M258.1,459.6c0,0,0.5,0,1.2,0c0.9,0.1,1.8,0.5,2.6,1.1c0.7,0.6,1.3,1.4,1.6,2.3c0.2,0.7,0.3,1.1,0.3,1.1
		c0-0.1,0-0.2,0-0.3c0-0.3-0.1-0.6-0.2-0.9c-0.6-1.9-2.3-3.3-4.3-3.4c-0.3,0-0.6,0-0.9,0C258.3,459.5,258.2,459.5,258.1,459.6z"/>
	<path class="st7" d="M265.8,462.7c0.8,0.2,1.5,0.2,2.3,0.2c0.8,0,1.6,0,2.3-0.2c0,0-1,0-2.3,0S265.8,462.6,265.8,462.7z"/>
	<path class="st7" d="M262.7,462.6c0,0,0.1,0.2,0.2,0.5s0.2,0.5,0.2,0.4s0.1-0.2,0-0.5S262.7,462.6,262.7,462.6z"/>
	<path class="st7" d="M261.5,461.1c0,0,0.1,0.2,0.2,0.4s0.3,0.3,0.4,0.2s-0.1-0.2-0.2-0.4S261.6,461.1,261.5,461.1z"/>
	<path class="st7" d="M259.8,460.5c0,0.1,0.2,0.1,0.5,0.1s0.4,0.2,0.5,0.2s-0.1-0.2-0.4-0.4S259.8,460.4,259.8,460.5z"/>
	<path class="st7" d="M258.6,460.1c0,0,0.1,0.1,0.2,0.2s0.2,0,0.3,0s-0.1-0.1-0.2-0.2S258.6,460.1,258.6,460.1z"/>
	<path class="st5" d="M236.5,459l0.6-1.3l-14.4-7.2l-2.5,5.5l0.9,0.5c3.9,2,20,10.1,23.1,10.5C247.6,467.4,236.5,459,236.5,459z"/>
	<g class="st6">
		<path class="st3" d="M225.5,458.2c0.4-1.3,0.2-2.8-0.4-4c-0.6-1.2-1.7-2.1-2.9-2.6l-1.8,4.1L225.5,458.2z"/>
	</g>
	<g class="st6">
		<path class="st3" d="M241.8,463.3c0,0,3.8,3.2,2.9,3.7s-17.5-7.1-24.5-11l0.2-0.3l19.3,9C239.7,464.6,241,462.9,241.8,463.3z"/>
	</g>
	<path class="st7" d="M220.1,455.5l0.2,0.1l0.7,0.4l2.6,1.3c2.2,1.1,5.2,2.6,8.7,4.1s6.5,2.9,8.8,3.8l2.7,1.1l0.7,0.3
		c0.1,0,0.2,0.1,0.3,0.1l-0.2-0.1l-0.7-0.3l-2.7-1.1c-2.2-1-5.4-2.3-8.8-3.9s-6.5-3-8.7-4.1l-2.6-1.2l-0.7-0.3L220.1,455.5z"/>
	<path class="st7" d="M239.6,464.8c0.3-0.4,0.7-0.7,1.1-1c0.4-0.3,0.9-0.5,1.4-0.6c-0.5,0-1,0.1-1.5,0.5
		C240.1,463.9,239.7,464.3,239.6,464.8z"/>
	<path class="st7" d="M236.3,460.7c0,0,0.3-0.1,0.7-0.4s0.6-0.5,0.6-0.5s-0.3,0.1-0.7,0.4S236.2,460.6,236.3,460.7z"/>
	<path class="st7" d="M235.4,459.5c0,0.1,0.3,0,0.7-0.1s0.6-0.2,0.6-0.3s-0.3,0-0.7,0.1S235.4,459.5,235.4,459.5z"/>
	<path class="st7" d="M235.2,457.8c0,0,0.3,0.2,0.7,0.4c0.2,0.2,0.5,0.2,0.8,0.3c0,0-0.3-0.2-0.7-0.4
		C235.8,457.9,235.5,457.8,235.2,457.8z"/>
	<path class="st7" d="M235.4,456.7c0.2,0.3,0.4,0.5,0.7,0.6c0.3,0.2,0.6,0.3,0.9,0.3c0-0.1-0.4-0.2-0.8-0.5
		C236,457,235.7,456.9,235.4,456.7z"/>
	<path class="st7" d="M237.3,459.6c0.3,0.2,0.6,0.3,0.9,0.4c0.4,0.1,0.7,0.2,1.1,0.2c0.2,0,0.5,0,0.7,0c0.1,0,0.3-0.1,0.4-0.2
		c0.1-0.1,0.1-0.3,0-0.4c-0.6-0.7-1.6-0.9-2.4-0.5c-0.2,0.1-0.4,0.3-0.6,0.5c-0.1,0.1-0.1,0.2-0.1,0.2c0.2-0.2,0.5-0.4,0.8-0.6
		c0.3-0.1,0.7-0.2,1-0.2c0.4,0,0.8,0.2,1.1,0.6c0.1,0.2,0,0.3-0.2,0.4c-0.2,0-0.4,0-0.6,0c-0.4,0-0.7-0.1-1.1-0.2
		C237.7,459.8,237.4,459.6,237.3,459.6z"/>
	<path class="st7" d="M237.6,459.8c0,0,0.2-0.2,0.4-0.6c0.1-0.3,0.1-0.5,0-0.8c0-0.4-0.2-0.7-0.6-0.8c-0.2-0.1-0.8,0.4-0.8,0.6
		s0.3,0.1,0.3,0.2c0,0.3,0.1,0.5,0.2,0.8c0.1,0.2,0.2,0.4,0.4,0.6c0,0-0.1-0.2-0.2-0.7c-0.1-0.2-0.1-0.5-0.1-0.7
		c0-0.3,0-0.6,0.3-0.6s0.4,0.4,0.4,0.7c0.1,0.2,0.1,0.5,0,0.7C237.7,459.4,237.7,459.6,237.6,459.8z"/>
	<path class="st7" d="M222.2,451.7c0,0,0.4,0.1,1.1,0.5c0.8,0.5,1.5,1.2,1.9,2c0.4,0.8,0.6,1.8,0.5,2.7c-0.1,0.7-0.2,1.2-0.2,1.2
		c0.1-0.1,0.1-0.2,0.1-0.3c0.1-0.3,0.2-0.6,0.2-0.9c0.1-1-0.1-2-0.5-2.8c-0.4-0.9-1.1-1.6-2-2.1c-0.3-0.1-0.5-0.3-0.8-0.4
		C222.5,451.7,222.4,451.7,222.2,451.7z"/>
	<path class="st7" d="M228,457.6c0.6,0.5,1.3,0.9,2,1.2c0.7,0.4,1.4,0.6,2.2,0.8c0,0-1-0.4-2.1-1S228,457.6,228,457.6z"/>
	<path class="st7" d="M225.1,456.3c-0.1,0,0,0.2,0,0.5s0,0.5,0,0.5s0.2-0.2,0.2-0.5S225.2,456.3,225.1,456.3z"/>
	<path class="st7" d="M224.7,454.5c-0.1,0,0,0.2,0.1,0.4s0.2,0.4,0.2,0.4s0-0.2-0.1-0.4S224.7,454.5,224.7,454.5z"/>
	<path class="st7" d="M223.4,453.2c0,0,0.2,0.1,0.4,0.3s0.3,0.4,0.3,0.3s0-0.3-0.2-0.5S223.4,453.1,223.4,453.2z"/>
	<path class="st7" d="M222.5,452.4c0,0,0,0.1,0.1,0.3s0.2,0.1,0.2,0.1s0-0.1-0.1-0.2S222.5,452.4,222.5,452.4z"/>
	<path class="st14" d="M320.4,221.1c-0.9-0.6-1.6-1.3-2.3-2.1c-0.8-0.7-1.4-1.5-1.9-2.5c0.9,0.6,1.6,1.3,2.3,2.1
		C319.3,219.4,319.9,220.2,320.4,221.1z"/>
	<path class="st7" d="M295.8,208.7c-0.2,0-0.4,0.1-0.6,0.1l-1.8,0.1l-6.6,0.1l-21.8,0.1l-21.8-0.1l-6.6-0.1l-1.8-0.1
		c-0.2,0-0.4,0-0.6-0.1c0.2,0,0.4,0,0.6,0l1.8-0.1l6.6-0.1l21.8-0.1l21.8,0.1l6.6,0.1l1.8,0.1C295.4,208.7,295.6,208.7,295.8,208.7z
		"/>
	<path class="st7" d="M309.5,218.4c-0.3,0-0.6,0-0.9,0l-2.5,0.1l-9.1,0.1l-29.9,0.1l-29.9-0.1l-9.1-0.1l-2.5-0.1c-0.3,0-0.6,0-0.9,0
		c0.3,0,0.6-0.1,0.9-0.1l2.5-0.1l9.1-0.1l29.9-0.1l29.9,0.1l9.1,0.1l2.5,0.1C308.9,218.3,309.2,218.3,309.5,218.4z"/>
	<path class="st7" d="M302.8,229.9c-0.3,0-0.6,0.1-0.9,0.1l-2.6,0.1l-9.4,0.1l-31,0.1l-31.1-0.1l-9.4-0.1l-2.6-0.1
		c-0.3,0-0.6,0-0.9-0.1c0.3,0,0.6,0,0.9,0l2.6-0.1l9.4-0.1l31.1-0.1l31,0.1l9.4,0.1l2.6,0.1C302.2,229.9,302.5,229.9,302.8,229.9z"
		/>
	<path class="st7" d="M284.8,241.7c-0.5,0.1-1.1,0.1-1.6,0.1l-4.4,0.1c-3.7,0-8.8,0.1-14.4,0.1s-10.7,0-14.4-0.1l-4.4-0.1
		c-0.5,0-1.1,0-1.6-0.1c0.5-0.1,1.1-0.1,1.6-0.1l4.4-0.1c3.7,0,8.8-0.1,14.4-0.1s10.7,0,14.4,0.1l4.4,0.1
		C283.7,241.6,284.3,241.6,284.8,241.7z"/>
	<path class="st7" d="M280.6,253.3c-0.5,0.1-0.9,0.1-1.4,0.1l-3.8,0.1c-3.2,0.1-7.6,0.1-12.5,0.1s-9.3,0-12.5-0.1l-3.8-0.1
		c-0.5,0-0.9,0-1.4-0.1c0.5-0.1,0.9-0.1,1.4-0.1l3.8-0.1c3.2-0.1,7.6-0.1,12.5-0.1s9.3,0,12.5,0.1l3.8,0.1
		C279.6,253.2,280.1,253.2,280.6,253.3z"/>
	<path class="st7" d="M282.8,247.8c-0.5,0.1-1,0.1-1.5,0.1l-4.1,0.1c-3.4,0-8.2,0.1-13.4,0.1s-10,0-13.4-0.1l-4.1-0.1
		c-0.5,0-1,0-1.5-0.1c0.5-0.1,1-0.1,1.5-0.1l4.1-0.1c3.4-0.1,8.2-0.1,13.4-0.1s10,0,13.4,0.1l4.1,0.1
		C281.8,247.7,282.3,247.8,282.8,247.8z"/>
	<path class="st7" d="M285.2,236c-0.5,0.1-1.1,0.1-1.6,0.1l-4.4,0.1c-3.8,0.1-8.9,0.1-14.7,0.1s-10.9,0-14.7-0.1l-4.4-0.1
		c-0.5,0-1.1,0-1.6-0.1c0.5-0.1,1.1-0.1,1.6-0.1l4.4-0.1c3.8,0,8.9-0.1,14.7-0.1s10.9,0,14.7,0.1l4.4,0.1
		C284.2,235.9,284.7,235.9,285.2,236z"/>
	<path class="st7" d="M242.6,235.9c-1.1,0.2-2.1,0.2-3.2,0.2c-2,0.1-4.8,0.1-7.8,0.1s-5.8,0-7.8-0.1c-1.1,0-2.2,0-3.2-0.2
		c1.1-0.1,2.2-0.2,3.2-0.2c2,0,4.8-0.1,7.8-0.1s5.8,0,7.8,0.1C240.4,235.7,241.5,235.8,242.6,235.9z"/>
	<path class="st7" d="M302.1,235.3c-3.6,0.3-7.3,0.3-10.9,0C294.8,235,298.5,235,302.1,235.3z"/>
	<path class="st7" d="M306.2,223.9c-0.3,0-0.6,0-0.9,0.1h-2.5l-9.3,0.1l-30.6,0.1l-30.6-0.1l-9.3-0.1h-2.5c-0.3,0-0.6,0-0.9-0.1
		c0.3,0,0.6-0.1,0.9-0.1h2.5l9.3-0.1l30.6-0.1l30.6,0.1l9.3,0.1h2.5C305.6,223.8,305.9,223.9,306.2,223.9z"/>
	<path class="st7" d="M307.8,213.1c-0.3,0-0.5,0-0.8,0l-2.3,0.1l-8.4,0.1l-27.8,0.1l-27.8-0.1l-8.4-0.1l-2.3-0.1c-0.3,0-0.5,0-0.8,0
		c0.3,0,0.5-0.1,0.8-0.1h2.3l8.4-0.1l27.8-0.1l27.8,0.1l8.4,0.1h2.3C307.3,213.1,307.6,213.1,307.8,213.1z"/>
</g>
<g id="speech-bubble--inject-529">
	<path class="st7" d="M153.1,141.6c0,0-0.1-0.2-0.1-0.6s-0.1-1.1-0.3-1.9c0-0.4-0.1-0.9-0.2-1.4s0-1.1,0-1.7s-0.1-1.3,0-2
		s0.1-1.5,0.2-2.3c0.8-9.2,5.1-17.7,12-23.8l1.6-1.4c0.6-0.4,1.2-0.9,1.8-1.3c5.4-3.7,11.7-6,18.2-6.6c0.9-0.1,1.8-0.1,2.6-0.1h1.3
		c0.4,0,0.9,0.1,1.4,0.1c3.7,0.2,7.4,1,10.8,2.4c7.5,2.9,13.9,8.1,18.1,14.9c4.5,7.4,6.4,16.1,5.2,24.6c-0.1,0.6-0.2,1.1-0.3,1.7
		v-0.2l11.8,16.4l0.4,0.5l-0.6-0.1l-17.5-2.7l0.2-0.1c-5.1,7.6-12.8,13-21.7,15.2c-1.3,0.3-2.7,0.6-4.1,0.7l-2,0.2
		c-0.7,0.1-1.3,0-2,0.1c-5,0.1-10-0.8-14.6-2.6c-4-1.6-7.6-3.9-10.8-6.7l-2.1-2l-1.8-2c-0.6-0.6-1.1-1.3-1.5-2
		c-0.5-0.7-1-1.3-1.3-1.9c-1.4-2.2-2.5-4.6-3.3-7l-0.9-2.7c-0.2-0.8-0.3-1.4-0.4-2l-0.2-1.2C153.1,141.7,153.1,141.5,153.1,141.6
		l0.1,0.4l0.3,1.2c0.1,0.5,0.3,1.2,0.5,2l0.9,2.6c0.9,2.4,2,4.7,3.4,6.9c0.4,0.7,0.9,1.3,1.3,1.9c0.5,0.7,1,1.4,1.5,2l1.8,2l2,1.9
		c3.2,2.8,6.8,5,10.7,6.6c4.6,1.8,9.5,2.7,14.4,2.6c0.7,0,1.3,0,2-0.1l2-0.2c1.4-0.1,2.7-0.4,4-0.8c2.8-0.7,5.5-1.7,8-3
		c5.4-2.8,10-7,13.4-12l0.1-0.1h0.2l17.4,2.7l-0.2,0.4L225,142.2l-0.1-0.1V142c0.1-0.5,0.2-1.1,0.3-1.6c1.1-8.5-0.7-17-5.1-24.3
		c-4.2-6.7-10.5-11.9-17.9-14.8c-3.4-1.3-7-2.1-10.7-2.3c-0.4,0-0.9-0.1-1.3-0.1h-1.3c-0.9,0-1.8,0-2.6,0.1c-1.7,0.2-3.4,0.4-5,0.8
		c-3.2,0.7-6.2,1.8-9.1,3.3c-1.3,0.7-2.6,1.5-3.9,2.4c-0.6,0.4-1.2,0.8-1.8,1.3l-1.6,1.4c-3.8,3.4-6.9,7.6-9,12.3
		c-1.6,3.6-2.6,7.3-3,11.2c-0.1,0.8-0.1,1.5-0.2,2.2s0,1.4,0,2s0,1.2,0,1.7s0.1,1,0.1,1.4c0.1,0.8,0.2,1.5,0.2,1.9
		S153.1,141.6,153.1,141.6z"/>
	<polygon class="st8" points="177.2,121.2 172.9,154.5 205.4,154.5 200.6,121.2 	"/>
	<path class="st3" d="M198,126.1c0,0.3-0.1,0.7-0.2,1c-0.3,0.8-0.7,1.7-1.2,2.4c-0.7,1.1-1.7,2-2.9,2.7c-1.4,0.8-3.1,1.2-4.7,1.2
		c-1.6,0-3.3-0.3-4.7-1.1c-1.2-0.6-2.2-1.6-2.9-2.7c-0.5-0.8-0.8-1.6-1.1-2.4c-0.1-0.3-0.2-0.7-0.1-1c0.4,1.1,0.9,2.2,1.5,3.2
		c0.7,1.1,1.7,1.9,2.8,2.5c1.4,0.7,2.9,1,4.5,1c1.6,0,3.1-0.4,4.5-1.1c1.1-0.6,2.1-1.5,2.8-2.5C197,128.3,197.6,127.2,198,126.1z"/>
</g>
</svg>
