<?xml version="1.0" encoding="UTF-8"?>
<svg xmlns="http://www.w3.org/2000/svg" xmlns:xlink="http://www.w3.org/1999/xlink" width="480pt" height="480pt" viewBox="0 0 480 480" version="1.1">
<g id="surface10480989">
<path style=" stroke:none;fill-rule:nonzero;fill:rgb(40%,40%,40%);fill-opacity:1;" d="M 240 0 C 107.421875 0 0 107.421875 0 240 C 0 372.578125 107.421875 480 240 480 C 372.578125 480 480 372.578125 480 240 C 480 107.421875 372.578125 0 240 0 Z M 240 40 C 350.46875 40 440 129.53125 440 240 C 440 350.46875 350.46875 440 240 440 C 129.53125 440 40 350.46875 40 240 C 40 129.53125 129.53125 40 240 40 Z M 218.75 77.5 L 210 241.25 L 211.875 258.75 L 335 367.5 L 354.375 347.5 L 252.5 239.375 L 243.75 77.5 Z M 218.75 77.5 "/>
</g>
</svg>
