<?xml version="1.0" encoding="utf-8"?>
<!-- Generator: Adobe Illustrator 23.1.0, SVG Export Plug-In . SVG Version: 6.00 Build 0)  -->
<svg version="1.1" id="Layer_1" xmlns="http://www.w3.org/2000/svg" xmlns:xlink="http://www.w3.org/1999/xlink" x="0px" y="0px"
	 viewBox="0 0 500 500" style="enable-background:new 0 0 500 500;" xml:space="preserve">
<style type="text/css">
	.st0{fill:#EBEBEB;}
	.st1{fill:#E6E6E6;}
	.st2{fill:#F0F0F0;}
	.st3{fill:#FAFAFA;}
	.st4{fill:#FFFFFF;}
	.st5{opacity:0.7;fill:#E6E6E6;enable-background:new    ;}
	.st6{fill:#E0E0E0;}
	.st7{fill:#F5F5F5;}
	.st8{fill:#263238;}
	.st9{fill:#FFC3BD;}
	.st10{fill:#FF725E;}
	.st11{opacity:0.2;enable-background:new    ;}
	.st12{opacity:0.3;enable-background:new    ;}
	.st13{fill:#ED847E;}
	.st14{fill:#B55B52;}
	.st15{opacity:0.4;enable-background:new    ;}
	.st16{opacity:0.2;fill:#FF725E;enable-background:new    ;}
	.st17{fill:#A02724;}
	.st18{opacity:0.5;fill:#FFFFFF;enable-background:new    ;}
	.st19{fill:#FDFDFF;}
</style>
<g id="background-complete--inject-285">
	<rect y="382.4" class="st0" width="500" height="0.2"/>
	<rect x="416.8" y="398.5" class="st0" width="33.1" height="0.2"/>
	<rect x="317" y="395.1" class="st0" width="58" height="0.2"/>
	<rect x="361.7" y="389.2" class="st0" width="54.1" height="0.2"/>
	<rect x="52.5" y="390.9" class="st0" width="14.9" height="0.2"/>
	<rect x="76.3" y="390.9" class="st0" width="64.4" height="0.2"/>
	<rect x="182" y="395.1" class="st0" width="43.1" height="0.2"/>
	<path class="st0" d="M237,337.8H43.9c-3.1,0-5.7-2.6-5.7-5.7V60.7c0-3.1,2.6-5.7,5.7-5.7H237c3.2,0,5.7,2.6,5.7,5.7c0,0,0,0,0,0
		v271.4C242.7,335.2,240.2,337.8,237,337.8z M43.9,55.2c-3,0-5.5,2.4-5.5,5.5v271.4c0,3,2.4,5.5,5.5,5.5H237c3,0,5.5-2.4,5.5-5.5
		V60.7c0-3-2.4-5.5-5.5-5.5H43.9z"/>
	<path class="st0" d="M453.3,337.8H260.2c-3.2,0-5.7-2.6-5.7-5.7V60.7c0-3.1,2.6-5.7,5.7-5.7h193.1c3.1,0,5.7,2.5,5.7,5.7v271.4
		C459,335.2,456.5,337.8,453.3,337.8z M260.2,55.2c-3,0-5.5,2.4-5.5,5.5v271.4c0,3,2.4,5.5,5.5,5.5h193.1c3,0,5.5-2.4,5.5-5.5V60.7
		c0-3-2.4-5.5-5.5-5.5H260.2z"/>
	<rect x="64.8" y="83.9" class="st1" width="155.7" height="144.1"/>
	<rect x="66.5" y="83.9" class="st2" width="157.7" height="144.1"/>
	<rect x="71.8" y="89.8" class="st3" width="147.2" height="132.4"/>
	<polygon class="st4" points="157.8,222.1 131.8,89.8 97.7,89.8 123.7,222.1 	"/>
	<polygon class="st4" points="118.4,222.1 92.4,89.8 77,89.8 103,222.1 	"/>
	<polygon class="st4" points="200.4,222.1 174.4,89.8 168.8,89.8 194.8,222.1 	"/>
	<rect x="218.3" y="89.8" class="st1" width="0.7" height="132.4"/>
	<path class="st5" d="M60.8,83.7v73.7h15.1c0,0,27.2-34.3,33.3-70.8c0.6-3.3-1.6-6.4-4.8-7c-0.4-0.1-0.8-0.1-1.2-0.1H65
		C62.7,79.5,60.9,81.3,60.8,83.7C60.8,83.6,60.8,83.6,60.8,83.7z"/>
	<path class="st5" d="M60.8,287.6V162h15.1c0,0,9.4,104,13,125.6H60.8z"/>
	<path class="st6" d="M61.4,157.4h14.1c0.8,0,1.5,0.7,1.5,1.5v1.6c0,0.8-0.7,1.5-1.5,1.5H61.4c-0.8,0-1.5-0.7-1.5-1.5v-1.6
		C59.9,158.1,60.6,157.4,61.4,157.4z"/>
	<path class="st5" d="M228.5,83.7v73.7h-15.1c0,0-27.1-34.3-33.3-70.8c-0.6-3.3,1.6-6.4,4.9-7c0.4-0.1,0.7-0.1,1.1-0.1h38.4
		C226.7,79.6,228.5,81.4,228.5,83.7z"/>
	<path class="st5" d="M228.5,287.6V162h-15.1c0,0-9.4,104-13,125.6H228.5z"/>
	<path class="st6" d="M228,162h-14.1c-0.8,0-1.5-0.7-1.5-1.5v-1.6c0-0.8,0.7-1.5,1.5-1.5H228c0.8,0,1.5,0.7,1.5,1.5v1.6
		C229.5,161.3,228.8,162,228,162z"/>
	<rect x="296.5" y="103.7" class="st1" width="86.8" height="100.7"/>
	<rect x="297.9" y="103.7" class="st2" width="91.5" height="100.7"/>
	<rect x="305.5" y="111.3" class="st4" width="76.2" height="85.3"/>
	<path class="st2" d="M362.2,173.3h-19.8c-9.9,0-18-8.1-18-18.1v-19.8c0-0.4,0.3-0.7,0.7-0.7l0,0h19.8c9.9,0,18,8.1,18,18v19.8
		C363,172.9,362.7,173.2,362.2,173.3C362.3,173.3,362.2,173.3,362.2,173.3z M325.8,136.2v19c0,9.2,7.4,16.6,16.6,16.6c0,0,0,0,0,0
		h19v-19c0-9.2-7.4-16.6-16.6-16.6L325.8,136.2z"/>
	<rect x="272.1" y="242.3" class="st2" width="15.5" height="135.9"/>
	<rect x="274.2" y="378.2" class="st2" width="148.6" height="4.2"/>
	<rect x="287.6" y="242.3" class="st7" width="137.4" height="135.9"/>
	<path class="st2" d="M413,325.2H299.6v-29.8H413V325.2z M300.6,324.2H412v-27.8H300.6L300.6,324.2z"/>
	<path class="st2" d="M413,362.2H299.6v-29.8H413V362.2z M300.6,361.2H412v-27.8H300.6L300.6,361.2z"/>
	<path class="st2" d="M368.9,307.6h-25.2c-2,0-3.6-1.6-3.6-3.6c0-2,1.6-3.6,3.6-3.6h25.2c2,0,3.6,1.6,3.6,3.6
		C372.5,306,370.9,307.6,368.9,307.6z M343.7,301.4c-1.4,0-2.6,1.2-2.6,2.6c0,1.4,1.2,2.6,2.6,2.6h25.2c1.4,0,2.6-1.2,2.6-2.6
		c0-1.4-1.2-2.6-2.6-2.6l0,0H343.7z"/>
	<path class="st2" d="M413,288.1H299.6v-29.8H413V288.1z M300.6,287.1H412v-27.8H300.6L300.6,287.1z"/>
	<path class="st2" d="M368.9,270.5h-25.2c-2,0-3.6-1.6-3.6-3.6c0-2,1.6-3.6,3.6-3.6h25.2c2,0,3.6,1.6,3.6,3.6
		C372.5,268.9,370.9,270.5,368.9,270.5z M343.7,264.3c-1.4,0-2.6,1.2-2.6,2.6c0,1.4,1.2,2.6,2.6,2.6h25.2c1.4,0,2.6-1.2,2.6-2.6
		c0-1.4-1.2-2.6-2.6-2.6l0,0H343.7z"/>
	<path class="st2" d="M368.9,344.6h-25.2c-2,0-3.6-1.6-3.6-3.6c0-2,1.6-3.6,3.6-3.6h25.2c2,0,3.6,1.6,3.6,3.6
		C372.5,343,370.9,344.6,368.9,344.6z M343.7,338.4c-1.4,0-2.6,1.2-2.6,2.6c0,1.4,1.2,2.6,2.6,2.6h25.2c1.4,0,2.6-1.2,2.6-2.6
		c0-1.4-1.2-2.6-2.6-2.6l0,0H343.7z"/>
	<rect x="287.6" y="238.4" class="st2" width="140.3" height="3.9"/>
	<rect x="269.1" y="238.4" class="st1" width="18.5" height="3.9"/>
</g>
<g id="Shadow--inject-285">
	<ellipse id="path--inject-285" class="st7" cx="250" cy="416.2" rx="193.9" ry="11.3"/>
</g>
<g id="character-1--inject-285">
	<path class="st8" d="M165.6,143.1c0.2-2.2,9.7-10.4,19.6-4.7s2.8,22.9,13.6,24.6c-7,7-29.8,15.6-36.8,7.5S154.1,140,165.6,143.1z"
		/>
	<path class="st9" d="M205.6,198.6c0.3,3.7,0.6,7.6,1.2,11.4c0.5,3.7,1.2,7.3,2.2,10.9c0.1,0.4,0.3,0.8,0.4,1.2l0.4,1.1
		c0.1,0.2,0.2,0.4,0.3,0.6c0.2,0.3,1.6,0.6,3.1,0.4c3.6-0.6,7-1.7,10.3-3.3l2.5,3.7c-0.8,0.7-1.7,1.4-2.5,2
		c-0.9,0.6-1.7,1.2-2.7,1.8c-1.9,1.2-4,2.1-6.2,2.7c-1.3,0.4-2.6,0.5-3.9,0.6c-1.6,0-3.2-0.4-4.6-1.1c-1.5-0.8-2.8-2.1-3.7-3.7
		l-0.3-0.5l-0.2-0.4l-0.4-0.8c-0.2-0.5-0.5-1-0.6-1.5c-1.5-4-2.6-8.1-3.3-12.3c-0.7-4.1-1.1-8.2-1.3-12.3L205.6,198.6z"/>
	<path class="st10" d="M200.8,188.6c8.1,6.2,7.8,17.9,7.8,17.9L194,210c0,0-4.4-11.8-2.6-16.1C193.3,189.4,196.2,185.1,200.8,188.6z
		"/>
	<path class="st9" d="M222.8,221.8l5.3-5.3l2.9,8.4c0,0-4.5,2.4-8.8,0.1L222.8,221.8z"/>
	<polygon class="st9" points="235.5,215.6 236.5,222.2 231,224.8 228.1,216.4 	"/>
	<polygon class="st9" points="153.8,409.3 161.9,410.1 170.4,390.7 162.2,389.9 	"/>
	<polygon class="st9" points="101.2,380.6 107.3,386.4 120.6,371.8 114.4,366.1 	"/>
	<path class="st8" d="M110.2,383.6l-4.6-8.3c-0.2-0.3-0.5-0.4-0.8-0.3l-7.1,2.7c-0.7,0.3-1,1.1-0.7,1.8c0,0,0,0.1,0.1,0.1
		c1.7,2.9,2.6,4.2,4.6,7.8c1.2,2.2,3.7,7.4,5.4,10.5s4.9,1.6,4.4,0.1c-2-6.5-1.6-10.1-1-12.9C110.5,384.6,110.4,384,110.2,383.6z"/>
	<path class="st8" d="M163,407.6h-10c-0.4,0-0.7,0.3-0.8,0.6l-2.2,7.9c-0.2,0.7,0.2,1.3,0.9,1.5c0.1,0,0.2,0.1,0.4,0
		c3.5,0,5.2,0,9.6,0h13.5c3.7,0,4.4-3.7,2.9-4c-6.8-1.5-10.7-3.6-12.8-5.5C164,407.8,163.5,407.6,163,407.6z"/>
	<polygon class="st11" points="170.4,390.7 166,400.7 157.5,400.7 162.2,389.9 	"/>
	<polygon class="st11" points="114.4,366.1 120.6,371.8 113.8,379.3 107.6,373.6 	"/>
	<path class="st10" d="M198.3,187.4c0,0,3.7,1.6-8.6,50.3l-34.2-2.9c1.8-13.9,2.5-22.4-1.6-51.5c4.9-0.6,9.8-0.8,14.7-0.7
		c5.2,0.1,10.4,0.5,15.5,1.3C188.9,184.8,193.6,186,198.3,187.4z"/>
	<path class="st4" d="M174.6,199.8C174.6,199.8,174.6,199.8,174.6,199.8c-7.5-6.1-12.1-15.5-10.6-17.7c0-0.1,0.1-0.1,0.2-0.1
		c0.1,0,0.1,0.1,0.1,0.2c-1.3,2.1,3.2,11.3,10.3,17.2c1.8-5.4,4.8-7.5,4.8-7.5c0.1,0,0.2,0,0.2,0.1c0,0.1,0,0.1,0,0.2
		c0,0-3.1,2.2-4.8,7.6C174.8,199.8,174.7,199.8,174.6,199.8L174.6,199.8z"/>
	<path class="st4" d="M186.5,200.1L186.5,200.1c-0.1,0-0.1,0-0.1-0.1c-1.6-5.6-4.6-7.8-4.7-7.8c0-0.1,0-0.1,0-0.2
		c0.1-0.1,0.1-0.1,0.2,0c0,0,3.1,2.2,4.7,7.7c3.7-4.6,1.6-13.2,0.2-15.4c0-0.1,0-0.2,0.1-0.2c0.1,0,0.1,0,0.2,0
		c1.5,2.3,3.7,11.4-0.4,16C186.6,200.2,186.5,200.2,186.5,200.1z"/>
	<path class="st9" d="M171.6,165.2c0.5,5.1,0.7,14.3-3.1,17.3c3.7,3.4,7.8,6.3,12.2,8.7c5.9-4.1,3.3-7.3,3.3-7.3
		c-5.4-1.8-5-5.9-3.6-9.7L171.6,165.2z"/>
	<path class="st11" d="M175.2,168.9l5.2,5.3c-0.3,0.9-0.6,1.8-0.7,2.7c-2.1-0.5-5.1-2.7-5.2-4.9
		C174.6,170.9,174.8,169.9,175.2,168.9z"/>
	<path class="st9" d="M167.1,157.3c2.1,8.1,2.8,11.6,7.8,15c7.5,5.1,17,0.7,17.3-7.8c0.3-7.7-3.2-19.7-11.9-21.4
		c-6.2-1.2-12.2,2.8-13.4,9C166.6,153.8,166.7,155.6,167.1,157.3z"/>
	<path class="st8" d="M169.4,163.4c2.8,4,9.9-19.8,0.6-19.1S161.9,155.1,169.4,163.4z"/>
	<path class="st8" d="M170.7,145.6c5.4,2.7,21,6,18.9,1.6c-2.4-4.4-7-7.2-12.1-7.2C172.4,140,165.9,143.2,170.7,145.6z"/>
	<path class="st9" d="M166.4,164.2c0.8,1.4,2,2.5,3.6,3c2.1,0.6,3.1-1.2,2.6-3.2c-0.5-1.8-2.1-4.2-4.2-4c-1.5,0.2-2.6,1.6-2.4,3.1
		C166.1,163.5,166.2,163.8,166.4,164.2z"/>
	<path class="st8" d="M189.7,237.7c0,0,11.6,51.1,3.9,87.2c-5.2,24.1-23.8,72.9-23.8,72.9l-14.6-0.4c0,0,14.1-51.2,17-71.3
		c5-34.4-7.5-90.6-7.5-90.6L189.7,237.7z"/>
	<path class="st11" d="M176.3,248l-7.3,11.5c2.2,13.6,3.6,27.4,4.2,41.2C183.5,282.3,178.6,257.7,176.3,248z"/>
	<polygon class="st10" points="171.8,398.5 153.8,398.1 154.8,392.6 173.2,393.4 	"/>
	<path class="st8" d="M182.2,237.2c0,0-6.8,54.2-21.5,83.8c-11.9,23.9-43.6,58-43.6,58l-8.1-8.3c0,0,21.4-37,30.2-52.9
		c21.6-38.9,4-68.7,16.2-83L182.2,237.2z"/>
	<polygon class="st10" points="118,380 107.5,369.9 111,365.1 122.1,376.2 	"/>
	<path class="st10" d="M155.2,232.7l-1.8,2.9c-0.1,0.2,0.1,0.5,0.5,0.5l35.8,3.1c0.3,0,0.6-0.1,0.6-0.3l0.6-3c0-0.2-0.2-0.4-0.5-0.4
		l-34.6-3C155.5,232.5,155.3,232.5,155.2,232.7z"/>
	<path class="st12" d="M155.2,232.7l-1.8,2.9c-0.1,0.2,0.1,0.5,0.5,0.5l35.8,3.1c0.3,0,0.6-0.1,0.6-0.3l0.6-3c0-0.2-0.2-0.4-0.5-0.4
		l-34.6-3C155.5,232.5,155.3,232.5,155.2,232.7z"/>
	<path class="st8" d="M159.5,237l-0.9-0.1c-0.2,0-0.3-0.1-0.3-0.2l0.8-3.9c0-0.1,0.2-0.2,0.4-0.2l0.9,0.1c0.2,0,0.3,0.1,0.3,0.2
		l-0.8,3.9C159.8,236.9,159.7,237,159.5,237z"/>
	<path class="st8" d="M187.1,239.4l-0.9-0.1c-0.2,0-0.3-0.1-0.3-0.2l0.8-3.9c0-0.1,0.2-0.2,0.4-0.2l0.9,0.1c0.2,0,0.3,0.1,0.3,0.2
		l-0.8,3.9C187.4,239.3,187.3,239.4,187.1,239.4z"/>
	<path class="st8" d="M173.3,238.2l-0.9-0.1c-0.2,0-0.3-0.1-0.3-0.2l0.8-3.9c0-0.1,0.2-0.2,0.4-0.2l0.9,0.1c0.2,0,0.3,0.1,0.3,0.2
		l-0.8,3.9C173.6,238.1,173.4,238.2,173.3,238.2z"/>
	<path class="st8" d="M180.9,157c0.1,0.7,0.6,1.1,1,1.1s0.7-0.7,0.6-1.4s-0.6-1.1-1-1.1S180.7,156.3,180.9,157z"/>
	<path class="st8" d="M188.4,155.5c0.1,0.7,0.6,1.1,1,1.1s0.7-0.7,0.6-1.4s-0.6-1.1-1-1.1S188.3,154.9,188.4,155.5z"/>
	<path class="st8" d="M188.8,154.2l1.5-0.8C190.3,153.5,189.7,154.9,188.8,154.2z"/>
	<path class="st13" d="M185.8,157.2c0.9,1.4,2,2.7,3.2,3.8c-0.6,0.6-1.4,1-2.3,0.9L185.8,157.2z"/>
	<path class="st8" d="M183.6,165.1c-1.4,0-2.8-0.5-3.8-1.4c-0.1-0.1-0.1-0.2,0-0.2c0.1-0.1,0.2-0.1,0.2,0c0,0,0,0,0,0
		c1.3,1.1,3.1,1.6,4.8,1.2c0.1,0,0.2,0,0.2,0.1c0,0.1,0,0.2-0.1,0.2c0,0,0,0,0,0C184.5,165,184.1,165.1,183.6,165.1z"/>
	<path class="st8" d="M176.3,154.4c-0.1,0-0.1,0-0.2,0c-0.2-0.1-0.2-0.3-0.1-0.5c0,0,0,0,0,0c0.6-1.1,1.7-1.8,3-1.9
		c0.2,0,0.3,0.1,0.3,0.3c0,0,0,0,0,0c0,0.2-0.1,0.3-0.3,0.3c0,0,0,0,0,0c-1,0.1-2,0.7-2.5,1.6C176.5,154.4,176.4,154.4,176.3,154.4z
		"/>
	<path class="st8" d="M190.5,151.7c-0.1,0-0.1,0-0.2,0c-0.9-0.5-2-0.6-2.9-0.2c-0.2,0.1-0.4,0-0.4-0.1c-0.1-0.2,0-0.4,0.1-0.4
		c0,0,0,0,0,0c1.2-0.5,2.5-0.4,3.6,0.2c0.2,0.1,0.2,0.3,0.1,0.4c0,0,0,0,0,0C190.7,151.7,190.6,151.7,190.5,151.7z"/>
	<path class="st9" d="M158.7,196c-1.3,2.2-2.8,4.5-4.1,6.8s-2.7,4.5-4,6.8s-2.5,4.6-3.5,6.9c-0.3,0.6-0.5,1.1-0.8,1.7
		s-0.4,1.1-0.6,1.6c-0.1,0.2-0.2,0.5-0.2,0.8c0,0.1,0,0.1-0.1,0.1s0.2,0.4,1,0.7c1,0.4,2,0.7,3,0.8c2.5,0.4,5,0.5,7.4,0.4
		c5.3-0.1,10.5-0.6,15.7-1.3l1,4.4c-5.3,1.7-10.8,2.9-16.3,3.5c-2.9,0.4-5.8,0.5-8.8,0.3c-1.7-0.1-3.3-0.4-4.9-0.9
		c-1-0.3-1.9-0.8-2.7-1.4c-2.2-1.5-3.6-3.9-3.6-6.6c0-1.1,0.1-2.2,0.4-3.2c0.2-0.7,0.4-1.5,0.7-2.2s0.5-1.4,0.8-2.1
		c1.1-2.7,2.2-5.2,3.5-7.7s2.6-4.9,3.9-7.3s2.8-4.7,4.4-7.1L158.7,196z"/>
	<path class="st9" d="M170.6,222.3l6.7-3.5l0.2,7.4c0,0-4.7,1.7-7.4-0.5L170.6,222.3z"/>
	<polygon class="st9" points="181.3,219.3 180.3,225.9 177.5,226.2 177.2,218.8 	"/>
	<path class="st10" d="M153.9,183.2c-4.2,0.8-10.1,12.8-10.1,12.8l13,11.2c0,0,5.9-10.9,5.5-16.3
		C161.9,186.3,159.2,182.3,153.9,183.2z"/>
	<path class="st10" d="M111.8,388c-0.1,0-0.2,0-0.3,0c-1-0.3-1.7-2.2-2-3.3c0-0.1,0-0.1,0-0.2c0.1,0,0.1,0,0.2,0
		c0.3,0.2,3,1.6,3.1,2.6c0,0.2-0.1,0.5-0.3,0.6C112.3,387.9,112,388,111.8,388z M109.9,385c0.5,1.5,1.1,2.5,1.6,2.7
		c0.3,0.1,0.5,0,0.8-0.2c0.1-0.1,0.2-0.2,0.2-0.3C112.4,386.6,110.9,385.5,109.9,385L109.9,385z"/>
	<path class="st10" d="M112.2,385.4c-0.9,0-1.8-0.2-2.6-0.6c-0.1,0-0.1-0.1-0.1-0.1c0-0.1,0-0.1,0.1-0.1c0.1,0,2.2-1.2,3.3-0.8
		c0.3,0.1,0.5,0.3,0.6,0.6c0.1,0.3,0.1,0.6-0.2,0.8C113.1,385.4,112.6,385.5,112.2,385.4z M110,384.7c0.9,0.4,2.7,0.6,3.2,0.2
		c0.1-0.1,0.2-0.2,0-0.4c-0.1-0.2-0.2-0.3-0.4-0.4C112.1,383.8,110.6,384.4,110,384.7L110,384.7z"/>
	<path class="st10" d="M167.4,409.2c-0.9,0-1.8-0.1-2.7-0.3c-0.1,0-0.1-0.1-0.1-0.1c0-0.1,0-0.1,0.1-0.2c0.4-0.2,4-1.9,5-1.2
		c0.2,0.1,0.3,0.3,0.2,0.5c0,0.4-0.2,0.7-0.5,0.9C168.8,409.1,168.1,409.3,167.4,409.2z M165.3,408.6c1.1,0.2,3.1,0.5,3.9-0.1
		c0.2-0.2,0.4-0.4,0.4-0.7c0-0.1,0-0.2-0.1-0.2C168.9,407.2,166.8,408,165.3,408.6z"/>
	<path class="st10" d="M164.8,408.9c0,0-0.1,0-0.1,0c0,0,0-0.1,0-0.2c0-0.1,0.9-3.7,2.8-3.5c0.5,0.1,0.6,0.3,0.6,0.5
		c0.1,0.9-2.2,2.8-3.3,3.2L164.8,408.9z M167.2,405.5c-1.3,0-2,2.1-2.2,2.9c1.2-0.6,2.8-2.1,2.7-2.7c0,0,0-0.2-0.4-0.2L167.2,405.5z
		"/>
	<path class="st8" d="M181.2,155.7l1.5-0.8C182.7,154.9,182.1,156.4,181.2,155.7z"/>
</g>
<g id="character-2--inject-285">
	<path class="st14" d="M356.6,188.2c0,0.7-0.1,1.2-0.2,1.8s-0.1,1.1-0.2,1.6c-0.2,1.1-0.4,2.1-0.6,3.2c-0.5,2.1-1,4.2-1.7,6.2
		c-1.4,4.1-3.3,8-5.6,11.7l-0.9,1.4l-0.2,0.3l-0.1,0.2l-0.2,0.3c-0.3,0.4-0.6,0.7-1,1c-1.2,1.1-2.6,1.8-4.1,2.3
		c-2.3,0.6-4.8,0.8-7.2,0.6c-4.3-0.4-8.4-1.3-12.4-2.8l1.1-4.3c3.8,0.4,7.5,0.5,11.3,0.2c1.6-0.1,3.2-0.4,4.7-1
		c0.4-0.2,0.7-0.4,1-0.7c-0.1,0.1,0.6-1,1-1.7c1.7-3.2,3.2-6.6,4.2-10.1c0.5-1.8,1-3.6,1.4-5.4c0.2-0.9,0.4-1.8,0.5-2.7l0.2-1.4
		l0.2-1.2L356.6,188.2z"/>
	<path class="st8" d="M358.7,182.3c0.2,5.6-2,15.7-2,15.7l-13.9-1.7c0,0-0.5-14.8,2.2-18.4C349.6,172,358.5,177,358.7,182.3z"/>
	<path class="st14" d="M325,212.1l-8.3-2.9l1.7,6.2c0,0,3.9,2.3,6.1-0.3L325,212.1z"/>
	<polygon class="st14" points="313.9,210.7 312.7,215.1 318.4,215.3 316.7,209.1 	"/>
	<path class="st10" d="M274.9,239.8c24.1,0.4,43.9-18.8,44.2-42.9c0.4-24.1-18.8-43.9-42.9-44.2c-0.4,0-0.9,0-1.3,0h-5.6v87.1
		L274.9,239.8z"/>
	<circle class="st10" cx="269.2" cy="196.2" r="43.6"/>
	<circle class="st15" cx="269.2" cy="196.2" r="43.6"/>
	<circle class="st16" cx="269.2" cy="196.2" r="38.6"/>
	<path class="st8" d="M317.2,153.6c0,0.6-0.4,1.2-0.8,1.2s-0.8-0.5-0.8-1.2s0.4-1.2,0.8-1.2S317.2,152.9,317.2,153.6z"/>
	<path class="st8" d="M316.6,152.5L315,152C315,152,315.8,153.2,316.6,152.5z"/>
	<path class="st17" d="M316.6,154.2c-0.6,1.5-1.4,2.9-2.4,4.2c0.7,0.5,1.5,0.6,2.3,0.4L316.6,154.2z"/>
	<path class="st8" d="M316.4,149.3c0.1,0,0.1,0,0.2,0c0.9-0.3,2-0.2,2.8,0.3c0.2,0.1,0.4,0.1,0.5-0.1c0.1-0.2,0.1-0.4-0.1-0.5
		c-1-0.7-2.3-0.8-3.5-0.4c-0.2,0.1-0.3,0.3-0.2,0.5c0,0,0,0,0,0C316.1,149.2,316.2,149.3,316.4,149.3z"/>
	<path class="st14" d="M336.4,160.5c-0.4,4.9,1.2,12.8,4.9,15.6c0,0-2.8,5.1-11.6,6.3c-9.8,1.3-5.2-4.2-5.2-4.2
		c5.2-2,4.6-5.9,3.3-9.4L336.4,160.5z"/>
	<path class="st14" d="M318.6,188.1c-1.1,5.1-2.4,10.1-4,15c-1.6,5-3.4,9.8-5.6,14.5l-0.4,0.9c-0.2,0.4-0.4,0.8-0.6,1.1
		c-0.4,0.7-0.8,1.4-1.3,2c-0.9,1.1-1.8,2.2-2.8,3.2c-1.9,1.9-3.9,3.6-6.1,5.2c-4.1,3.1-8.5,5.9-13.1,8.4l-2.5-3.7
		c3.8-3.2,7.6-6.5,11.1-9.8c1.7-1.6,3.4-3.4,4.9-5.2c0.7-0.8,1.4-1.7,1.9-2.6c0.3-0.4,0.5-0.8,0.7-1.2l0.2-0.6l0.3-0.9
		c0.9-2.3,1.7-4.6,2.5-6.9s1.5-4.7,2.2-7c1.4-4.7,2.6-9.6,3.7-14.3L318.6,188.1z"/>
	<path class="st14" d="M285.2,238.1l-4.6,3l-2.3-3.9c0,0,4.5-5.4,7.2-1.6L285.2,238.1z"/>
	<polygon class="st14" points="284,234.1 281.4,233.7 278.5,234.3 277.7,235.2 279.6,235.5 280.1,236.2 280.8,236.6 	"/>
	<polygon class="st14" points="276,241.5 273.5,239.5 278.3,237.2 280.6,241.2 	"/>
	<polygon class="st14" points="350.8,407.4 342.7,408 340.3,389.5 348.4,388.9 	"/>
	<polygon class="st14" points="402.4,383.9 395.4,388.1 383.8,373.6 390.8,369.4 	"/>
	<path class="st8" d="M393.4,386.6l6.6-6.4c0.2-0.2,0.6-0.3,0.9-0.1l5.6,4.4c0.5,0.5,0.6,1.3,0.1,1.8c0,0-0.1,0.1-0.1,0.1
		c-2.4,2.2-3.6,3.1-6.5,5.9c-1.8,1.7-4.2,4.4-6.7,6.8s-4.9,0.1-4.1-1.1c3.7-5.4,3.1-7.5,3.5-10.2C392.7,387.4,393,386.9,393.4,386.6
		z"/>
	<path class="st8" d="M342.2,406.9h9.1c0.3,0,0.6,0.2,0.6,0.5l1.2,7.2c0.1,0.7-0.4,1.3-1.1,1.4c-0.1,0-0.1,0-0.2,0
		c-3.2,0-4.7-0.2-8.7-0.2c-2.5,0-7.5,0.2-10.9,0.2s-3.6-3.4-2.2-3.6c6.3-1.4,8.7-3.2,10.8-5C341.2,407.1,341.7,406.9,342.2,406.9z"
		/>
	<polygon class="st11" points="340.3,389.5 341.6,399.8 349.6,398.4 348.4,388.9 	"/>
	<polygon class="st11" points="390.8,369.4 383.8,373.6 388.6,379.6 395.8,375.5 	"/>
	<path class="st8" d="M354.8,224.7l-32.7,4.4c-12.7-45.8-8.9-47.1-8.9-47.1c2.4-1.2,5-2.2,7.5-3l0.5-0.1c2.1-0.6,2.5-0.7,5.4-1.4
		c4.8-0.9,9.3-1.5,14.8-2l1-0.1c1-0.1,2-0.1,3-0.1c0.6,0,1.3,0,1.9-0.1h3.2c2.5,0.1,4.5,2.1,4.4,4.6c0,0.1,0,0.3,0,0.4
		C352.1,204.4,353,212.3,354.8,224.7z"/>
	<path class="st11" d="M319,196c0.7,4.7,0,9.6-1.8,14c-2.2-8.9-3.4-15-3.9-19.2C315.8,190.7,318.4,191.6,319,196z"/>
	<path class="st8" d="M313.5,181.8c-5.6,3.2-9.5,10.8-10.6,15.3l11.9,10.9c0,0,7.7-14.8,5.7-18.8C318.4,185,315.6,180.6,313.5,181.8
		z"/>
	<path class="st14" d="M339.1,151.5c-0.6,8-0.7,11.3-4.8,15.5c-6.2,6.2-15.9,4-17.7-3.9c-1.6-7.1-0.4-19,7.5-22.2
		c5.4-2.4,11.7,0,14.1,5.4C339,147.9,339.3,149.7,339.1,151.5z"/>
	<path class="st8" d="M322.6,154.7c0.8-2.8-5.5-6.1-6.2-10.4c-0.9-5.6,3.5-10.2,7.5-7.5c1.6-3.8,12.9-5.4,19-0.7
		c6.9,5.2-1.6,10.8,5.3,15.4c5.5,3.7,6.2,6,2.9,10.4c-2.6,3.4,4.1,2.6,2.4,8.4s-36.2,7.8-31.6-5C326,154,321,160.5,322.6,154.7z"/>
	<path class="st14" d="M324.6,154.1c0,1.5-0.6,2.9-1.5,4.1c-1.2,1.7-2.7,1.2-3-0.3c-0.3-1.4,0-3.9,1.5-5.1S324.5,152.4,324.6,154.1z
		"/>
	<path class="st8" d="M350.8,162.2c-0.1,0-0.1-0.1-0.1-0.1c0,0,0-0.1,0.1-0.1c2.2-1.2,3.3-3,3.3-4.8c-0.1-2.3-2-4.7-5.2-6.3
		c-3.8-1.9-3.5-4.5-3.2-7s0.6-5.1-3.1-7.3c-0.1,0-0.1-0.1-0.1-0.2c0-0.1,0.1-0.1,0.2-0.1c3.9,2.2,3.5,4.9,3.2,7.6s-0.6,4.9,3,6.8
		c3.3,1.6,5.3,4.1,5.3,6.6C354.2,159.2,353.1,161,350.8,162.2C350.8,162.3,350.8,162.3,350.8,162.2z"/>
	<path class="st10" d="M330.8,227.9c0,0,12.7,53.6,18.6,84.4c6.2,32.5,36.3,66.4,36.3,66.4l10.2-5.7c0,0-18.9-30.9-25-61.2
		c-12.4-61.6-4-74-16-87.1L330.8,227.9z"/>
	<polygon class="st8" points="384.7,379.6 397.4,372.5 395.5,368.8 381.2,375.4 	"/>
	<path class="st11" d="M337.5,239.5c9.9,8.6,8.8,39,7.8,52.7c-4.1-19.5-9.1-41.2-12-53.7C334.3,237.7,335.7,238,337.5,239.5z"/>
	<path class="st10" d="M390.6,390.3c0.1,0,0.2,0,0.3,0c1,0,2.2-1.6,2.8-2.5c0-0.1,0-0.1,0-0.2c0-0.1-0.1-0.1-0.2-0.1
		c-0.3,0.1-3.2,0.7-3.6,1.6c-0.1,0.2-0.1,0.5,0.1,0.6C390.1,390,390.3,390.2,390.6,390.3z M393.1,388c-0.8,1.2-1.6,1.9-2.2,1.9
		c-0.2,0-0.5-0.1-0.6-0.3c-0.1-0.1-0.1-0.2,0-0.3C390.4,388.8,391.9,388.3,393.1,388L393.1,388z"/>
	<path class="st10" d="M322.6,229.1c0,0-5.7,63.7-2.6,87.9c3.2,25.3,19.7,80.2,19.7,80.2l11.6-1.5c0,0-9.5-54.5-11.1-79.5
		c-1.8-27.3,6.3-90.4,6.3-90.4L322.6,229.1z"/>
	<polygon class="st8" points="337.3,397.9 353.9,395.8 353.6,390.9 335.6,392.6 	"/>
	<path class="st10" d="M391,387.8c0.8,0.2,1.7,0.3,2.5,0.1c0.1,0,0.1-0.1,0.1-0.1c0-0.1,0-0.1,0-0.2c-0.1-0.1-1.6-1.7-2.8-1.6
		c-0.3,0-0.6,0.1-0.8,0.4c-0.2,0.2-0.3,0.6-0.1,0.8C390.2,387.5,390.6,387.7,391,387.8z M393.1,387.6c-1,0.1-2.5-0.2-2.8-0.6
		c0-0.1-0.1-0.2,0.1-0.4c0.1-0.2,0.3-0.2,0.5-0.2C391.7,386.5,392.5,386.9,393.1,387.6L393.1,387.6z"/>
	<path class="st10" d="M339.2,408.3c0.9,0,1.7-0.1,2.5-0.3c0.1,0,0.1-0.1,0.1-0.2c0-0.1,0-0.2-0.1-0.2c-0.4-0.2-3.6-1.8-4.6-1.3
		c-0.2,0.1-0.3,0.3-0.3,0.5c0,0.4,0.1,0.7,0.4,0.9C337.8,408.2,338.5,408.3,339.2,408.3z M341.1,407.7c-1.8,0.3-3.1,0.2-3.6-0.2
		c-0.2-0.2-0.3-0.4-0.2-0.6c0-0.1,0-0.2,0.1-0.2C337.9,406.4,339.7,407.1,341.1,407.7L341.1,407.7z"/>
	<path class="st10" d="M341.7,408c0,0,0.1,0,0.1,0c0.1,0,0.1-0.1,0.1-0.2c0-0.1-0.4-3.4-2.2-3.4h-0.2c-0.5,0-0.7,0.3-0.7,0.5
		C338.7,405.8,340.6,407.6,341.7,408L341.7,408z M339.7,404.7c1.2,0,1.6,1.9,1.8,2.7c-1-0.6-2.3-2-2.2-2.5c0,0,0-0.2,0.4-0.2
		L339.7,404.7z"/>
	<path class="st10" d="M355.1,222.7l1.8,2.7c0.1,0.2-0.1,0.5-0.5,0.5l-34.3,4.6c-0.3,0-0.5-0.1-0.6-0.2l-0.6-2.9
		c0-0.2,0.2-0.4,0.5-0.4l33.1-4.4C354.8,222.5,355,222.5,355.1,222.7z"/>
	<path class="st18" d="M355.1,222.7l1.8,2.7c0.1,0.2-0.1,0.5-0.5,0.5l-34.3,4.6c-0.3,0-0.5-0.1-0.6-0.2l-0.6-2.9
		c0-0.2,0.2-0.4,0.5-0.4l33.1-4.4C354.8,222.5,355,222.5,355.1,222.7z"/>
	<path class="st10" d="M351.1,227l0.9-0.1c0.2,0,0.3-0.1,0.3-0.2l-0.8-3.7c0-0.1-0.2-0.2-0.4-0.1l-0.9,0.1c-0.2,0-0.3,0.1-0.3,0.2
		l0.8,3.7C350.7,226.9,350.9,227,351.1,227z"/>
	<path class="st10" d="M328.7,230l0.9-0.1c0.2,0,0.3-0.1,0.3-0.2l-0.8-3.7c0-0.1-0.2-0.2-0.4-0.1l-0.9,0.1c-0.2,0-0.3,0.1-0.3,0.2
		l0.8,3.7C328.3,230,328.5,230,328.7,230z"/>
</g>
<path class="st19" d="M271,221.3c1.4,0,2.5-1.1,2.5-2.4v-4.4h0.7c7,0,12.7-5.6,12.7-12.4c0-6.9-5.7-12.4-12.8-12.4c0,0,0,0,0,0h-0.6
	v-15.2h7.8c1.4,0,2.5-1.1,2.5-2.4c0-1.3-1.1-2.4-2.5-2.4h-7.8v-4.2c0-1.3-1.1-2.4-2.5-2.4s-2.5,1.1-2.5,2.4v4.2h-3.2v-4.2
	c0-1.3-1.1-2.4-2.5-2.4s-2.5,1.1-2.5,2.4v4.2h-0.7c-7,0-12.7,5.6-12.7,12.4c0,6.9,5.7,12.5,12.7,12.5h0.7v15.2h-7.8
	c-1.4,0-2.5,1.1-2.5,2.4c0,1.3,1.1,2.4,2.5,2.4h7.8v4.4c0,1.3,1.1,2.4,2.5,2.4s2.5-1.1,2.5-2.4v-4.4h3.2v4.4
	C268.5,220.2,269.6,221.3,271,221.3z M274.2,194.4c4.2,0,7.7,3.4,7.7,7.6c0,4.2-3.5,7.6-7.7,7.6h-0.7v-15.2H274.2z M268.5,174.4
	v15.2h-3.2v-15.2H268.5z M259.6,189.6c-4.2,0-7.7-3.4-7.7-7.6c0-4.2,3.5-7.6,7.7-7.6h0.7v15.2H259.6z M265.3,209.6v-15.2h3.2v15.2
	L265.3,209.6L265.3,209.6z"/>
</svg>
