<?xml version="1.0" encoding="utf-8"?>
<!-- Generator: Adobe Illustrator 23.1.0, SVG Export Plug-In . SVG Version: 6.00 Build 0)  -->
<svg version="1.1" id="Capa_1" xmlns="http://www.w3.org/2000/svg" xmlns:xlink="http://www.w3.org/1999/xlink" x="0px" y="0px"
	 viewBox="0 0 512 512" style="enable-background:new 0 0 512 512;" xml:space="preserve">
<style type="text/css">
	.st0{fill:#DE5958;}
	.st1{fill:#D9225B;}
</style>
<g>
	<g>
		<path class="st0" d="M68.4,455c-2.9,0-5.8-1.1-8-3.3c-4.4-4.4-4.4-11.6,0-16.1L425.6,70.7c4.4-4.4,11.6-4.4,16.1,0
			c4.4,4.4,4.4,11.6,0,16.1L76.5,451.7C74.2,453.9,71.3,455,68.4,455L68.4,455z"/>
		<path class="st1" d="M441.7,70.7c-4.4-4.4-11.6-4.4-16.1,0L251,245.1l0,32.1L441.7,86.7C446.1,82.3,446.1,75.1,441.7,70.7
			L441.7,70.7z"/>
	</g>
</g>
<g>
	<g>
		<g>
			<path d="M111.2,158c52.6-68.6,148.7-83.5,214.2-33.2c36.8,28.2,57.3,72.8,56.1,120.7l-25.7-19.7c-2.3-1.8-5.8-1.3-7.7,1.2
				c-1.9,2.5-1.5,5.9,0.8,7.7l33.9,26.1c0.1,0.1,0.3,0.1,0.4,0.2c0.3,0.2,0.6,0.3,1,0.5c0.4,0.1,0.7,0.2,1.1,0.3
				c0.2,0,0.3,0.1,0.5,0.1c0.2,0,0.3-0.1,0.5-0.1c0.4,0,0.7-0.1,1.1-0.2c0.3-0.1,0.7-0.2,1-0.3c0.3-0.2,0.6-0.3,0.9-0.5
				c0.3-0.2,0.6-0.5,0.9-0.8c0.1-0.1,0.3-0.2,0.4-0.4l27.3-35.5c1.9-2.5,1.5-5.9-0.8-7.7c-2.3-1.8-5.8-1.3-7.7,1.2l-17,22.1
				c-0.4-49.2-22.2-94.5-60.1-123.7C262.1,62.1,159.1,78,102.7,151.5c-10.9,14.1-19.4,29.7-25.5,46.1c-0.9,2.3-0.1,4.8,1.7,6.2
				c0.4,0.3,0.9,0.6,1.5,0.8c2.8,0.9,6-0.6,7-3.5C93.1,185.7,101.1,171.2,111.2,158z"/>
			<path d="M394.5,307.4c1-2.9-0.4-6-3.3-6.9c-2.8-0.9-5.9,0.6-7,3.5c-5.6,15.6-13.6,30.3-23.8,43.7c-52.2,68-148.3,82.3-214.1,31.8
				c-36.9-28.4-57.7-72.9-56.8-120.7l25.8,19.8c2.4,1.8,5.8,1.3,7.6-1.1s1.5-5.9-0.9-7.7l-34.1-26.2c-0.1-0.1-0.3-0.1-0.4-0.2
				c-0.3-0.2-0.6-0.3-1-0.5c-0.3-0.1-0.7-0.2-1-0.3c-0.2,0-0.3-0.1-0.5-0.1c-0.2,0-0.3,0.1-0.5,0.1c-0.4,0-0.7,0.1-1.1,0.2
				c-0.3,0.1-0.7,0.2-1,0.3c-0.3,0.1-0.6,0.3-0.9,0.5c-0.3,0.2-0.6,0.5-0.8,0.7c-0.1,0.1-0.3,0.2-0.4,0.4L53.2,280
				c-1.9,2.4-1.5,5.9,0.9,7.7c2.4,1.8,5.8,1.3,7.6-1.1l16.9-22c0.7,49,22.8,94.4,60.9,123.7c70.5,54.1,173.4,38.9,229.4-34
				C379.9,339.9,388.5,324.2,394.5,307.4z"/>
		</g>
	</g>
</g>
</svg>
